<?xml version="1.0" encoding="utf-8"?>
<!-- Generator: Adobe Illustrator 16.0.0, SVG Export Plug-In . SVG Version: 6.00 Build 0)  -->
<!DOCTYPE svg PUBLIC "-//W3C//DTD SVG 1.1//EN" "http://www.w3.org/Graphics/SVG/1.1/DTD/svg11.dtd">
<svg version="1.1" id="Layer_1" xmlns="http://www.w3.org/2000/svg" xmlns:xlink="http://www.w3.org/1999/xlink" x="0px" y="0px"
	 width="454px" height="338.12px" viewBox="0 0 454 338.12" enable-background="new 0 0 454 338.12" xml:space="preserve">
<g>
	<path fill="#FF5515" d="M0,0h1.08c4.35,4.96,8.96,9.72,13.07,14.88C9.1,10.67,4.74,5.68,0,1.12V0L0,0z"/>
	<path fill="#41AABA" d="M1.08,0h5.51c5.8,6.26,11.56,12.55,17.42,18.75C19.27,12.17,13.72,6.2,8.5,0h2.07
		c4.42,4.95,8.77,9.97,13.3,14.82C20.71,9.5,16.27,4.93,12.49,0h3.36c4.05,4.64,7.86,9.52,12.19,13.9C24.7,9.14,21.05,4.59,17.48,0
		h5.37c2.73,3.32,5.33,6.76,8.16,10c-1.84-3.6-4.57-6.66-6.82-10h3.62c2.42,2.97,4.48,6.24,7.2,8.94c-1.95-2.99-4-5.93-5.93-8.94
		h49.09c6.69,18.88,13.49,37.75,19.71,56.79c-0.39,0.01-1.16,0.03-1.55,0.04c-5.76-11.44-10.24-23.5-16.16-34.85
		c2.48,10.04,7.67,19.23,10.66,29.13c-5.98-9.63-9.91-20.45-15.75-30.18c1.02,6.65,5.36,12.32,6.53,18.94
		c-5.24-8.99-10.03-18.23-15.32-27.19c-0.67-1.65-2.69-1.65-4.07-2.33c0.17,1.96,1.34,3.58,2.14,5.31
		c6.17,12.45,12.61,24.78,18.76,37.25c0.73,1.23,0.65,2.68,0.72,4.05c-0.27-0.18-0.8-0.54-1.07-0.73
		c-4.86-6.86-8.98-14.25-13.96-21.03l-0.75,0.09c1.48,3.67,4.15,6.89,4.86,10.83c-6.45-8.32-11.95-17.36-18.39-25.69
		c-2.01-1.73-3.96-3.73-6.49-4.66C54.35,26.79,61.8,37.13,68.1,48.14c-4.46-3.98-7.53-9.24-11.41-13.75
		c-1.87-1.98-3.14-4.87-5.65-6.05c6.94,10.53,14.44,20.68,21.64,31.04c1.2,1.84,2.79,3.52,3.33,5.72
		C68.12,55.92,60.8,46.26,53.1,36.92c-2.02-2.35-3.73-5.03-6.18-6.98c0.76,2.14,2.43,3.76,3.69,5.6
		c7.66,10.55,16.07,20.58,23.37,31.37C61.52,53.7,50.3,39.33,38.04,25.93c-0.32-0.26-0.96-0.77-1.28-1.03
		c1.74,3.51,4.69,6.24,6.96,9.4c7.87,10.14,16.64,19.64,23.55,30.48c0.92,1.36,2.25,2.55,2.6,4.22
		C58.09,57.46,46.95,45.26,35.4,33.49c-1.37-1.32-2.54-2.95-4.36-3.71c1.88,3.39,4.55,6.24,6.72,9.43
		c4.26,7.49,11.09,13.03,15.81,20.19c4.55,5.39,9.65,10.29,14.27,15.62c-6.17-3.58-10.52-9.66-16.77-13.15
		c-3.23-1.7-5.61-4.8-9.12-5.95c7.2,8.1,16.03,14.64,23.14,22.81c-6.42-4.49-12.22-9.8-18.6-14.33c-0.37-0.09-1.11-0.26-1.47-0.35
		c3.65,4.08,8.41,7.18,11.61,11.6c-2.06-0.53-4.14-1.19-5.88-2.46c-7.49-5.17-14.84-10.54-22.31-15.74
		c-1.28-0.83-2.45-1.97-4.03-2.19c0.27,1.59,0.41,3.45,1.94,4.38c7.47,6.35,15.71,11.81,22.97,18.39c-1.49-0.32-2.97-0.66-4.45-0.96
		c3.59,3.85,8.79,5.92,12.13,9.99c-13.11-7.44-25.81-15.59-38.82-23.2c-0.58-0.25-1.74-0.75-2.31-1c2.6,3.2,6.42,5.08,9.55,7.7
		c9.36,8.46,21.25,13.59,30.39,22.33c-6.54-2.34-12.39-6.29-18.93-8.62c-5.46-1.41-10.29-4.61-15.75-5.93c1,1.3,2.04,2.57,3.05,3.87
		c-6.91-2.14-13.45-5.35-20.3-7.7C2.58,74.57,1.29,74.7,0,74.9V15.18c3.59,2.9,6.84,6.26,10.71,8.79C7.19,19.82,3.36,15.94,0,11.65
		V8.56c2.26,2.22,4.52,4.48,7.09,6.34C4.71,11.88,2.61,8.64,0,5.82v-4.7c4.74,4.56,9.1,9.55,14.15,13.76
		C10.04,9.72,5.43,4.96,1.08,0L1.08,0z"/>
	<path fill="#FF5515" d="M6.59,0H8.5c5.22,6.2,10.77,12.17,15.51,18.75C18.15,12.55,12.39,6.26,6.59,0L6.59,0z"/>
	<path fill="#FF5515" d="M10.57,0h1.92c3.78,4.93,8.22,9.5,11.38,14.82C19.34,9.97,14.99,4.95,10.57,0L10.57,0z"/>
	<path fill="#FF5515" d="M15.85,0h1.63c3.57,4.59,7.22,9.14,10.56,13.9C23.71,9.52,19.9,4.64,15.85,0L15.85,0z"/>
	<path fill="#FF5515" d="M22.85,0h1.34c2.25,3.34,4.98,6.4,6.82,10C28.18,6.76,25.58,3.32,22.85,0L22.85,0z"/>
	<path fill="#FF4812" d="M27.81,0h1.27c1.93,3.01,3.98,5.95,5.93,8.94C32.29,6.24,30.23,2.97,27.81,0L27.81,0z"/>
	<path fill="#CFEBE7" d="M78.17,0h1.03c3.64,8.34,6.91,16.82,10.41,25.21c0.21-1.27,0.15-2.57-0.23-3.81
		c-1.67-6.13-3.47-12.24-4.85-18.46c1.28,1,1.49,2.74,2.12,4.14c5.34,15.61,10.66,31.23,15.95,46.86c-0.04-3.08-1.01-6.01-1.77-8.96
		c-2.32-8.66-4.69-17.31-6.99-25.98c-0.47-1.68-0.71-3.42-0.63-5.16c3.4,8.39,5.23,17.39,9.3,25.52c1.13,2.86,1.88,5.87,3.19,8.66
		c0.17-10.75-2.36-21.24-4.11-31.78c-0.21-1.521-0.56-3.08-0.09-4.58c2.44,6.56,3.19,13.7,5.97,20.13c-0.3-7.3-2.33-14.5-1.64-21.83
		c0.05-2.92-0.19-5.82-0.21-8.73c0.19,0.05,0.56,0.15,0.75,0.2c3.48,17.47,5.87,35.16,9.3,52.63c0.15-8.75-1.5-17.4-2.03-26.12
		C113.79,18.61,113,9.28,112.13,0h1.4c1.33,10.64,2.65,21.29,3.96,31.94c0.26,2.12,0.51,4.26,1.22,6.29
		c0.17-9.4-0.77-18.79-0.5-28.19c2.26,4.39,1.08,10.21,3.17,14.86c0.89-7.01-0.57-14.31,1.3-21.15c0.94,4.77,2.83,9.38,2.79,14.3
		c0.29,6.62,0.73,13.22,1.19,19.83c1.78-6.92,0.7-14.32,2.05-21.36c1.25-5.43,1.32-11.03,2.18-16.52h3.59
		c-0.11,10.12-0.74,20.24-0.65,30.36c0.08,0.09,0.25,0.28,0.33,0.37c0.73-3.64,1.91-7.16,2.85-10.75
		c1.15-6.63,2.08-13.31,3.01-19.98h1.15c-0.86,9.99-1.72,19.98-2.67,29.97c-0.4,6.38-1.64,12.76-1.04,19.17
		c2.51-16.38,5.04-32.77,7.6-49.14h7.92c-1.87,12.74-4.46,25.37-6.23,38.12c-0.14,5.69-1.57,11.23-2.32,16.85
		c0.57-0.9,1.02-1.87,1.27-2.91c4.57-16.16,8.21-32.59,13.11-48.65c0.16-0.07,0.47-0.21,0.63-0.28
		c-3.66,16.28-7.57,32.51-11.21,48.79c1.49-0.46,1.47-3.57,3.32-2.51c1.51,2.66-0.53,5.91,0.63,8.8
		c5.57-6.21,7.37-14.63,11.06-21.93c2.93-4.94,5.84-9.94,10.02-13.96c2.51-2.14,3.3-5.74,6.06-7.56
		c-4.67,12.8-10.62,25.13-15.65,37.8c-0.23,0.81-0.38,1.63-0.46,2.47c3.26-6.01,6.36-12.11,9.63-18.12c1.2-2.33,3.19-4.3,5.53-5.47
		c-1.3,5.98-6.05,11.17-5.09,17.56c4.45-7.18,8.95-14.33,13.38-21.52c1.04-1.59,1.92-3.32,3.35-4.6
		c-3.16,8.49-8.62,15.95-12.19,24.28c3.97-3.53,6.22-8.64,9.53-12.78c1.67-3.04,4.95-4.39,7.62-6.34c2.2-1.94,3.88-4.42,6.26-6.16
		c-0.61,3.08-2.57,5.63-3.92,8.41c-1.84,3.05-2.45,6.6-3.64,9.91c1.65-0.67,2.95-1.91,4.35-2.97c-0.33,2.73-2.49,4.68-3.83,6.96
		c-2.36,3.7-5.27,7.07-7.31,10.97c3.1-2.32,5.26-5.62,7.83-8.48c7.2-8.16,13.78-16.91,21.38-24.69c-0.49,1.5-1.48,2.74-2.4,3.99
		c-6.45,8.47-12.96,16.88-19.39,25.37c-0.59,0.79-1.05,1.64-1.37,2.58c10.7-6.46,17.45-17.54,27.19-25.13
		c-6.03,9.15-14.48,16.63-20.24,26.04c-1.56,2.39-3.85,4.32-4.92,7.02c5.12-3.4,8.82-8.93,14.29-11.64
		c-7.33,8.64-16.15,16.03-23.11,24.94C199.99,63.4,213,50.62,226.76,38.74c0.391-0.22,1.16-0.67,1.55-0.89
		c-2.7,4.32-6.689,7.68-9.53,11.91c-7.61,8.18-16.48,15.15-23.96,23.43c7.44-4.41,13.45-11.02,20.89-15.49
		c4.38-2.22,8.12-5.5,12.49-7.73c-1.8,3.95-6.25,5.91-8.25,9.76c6.46-3.59,12.09-8.7,18.89-11.65c-6.96,6.77-15.38,12-22.01,19.04
		c4.29-1.42,7.54-5.29,12.08-5.95c-8.41,6.78-17.51,12.69-25.7,19.71c4.51-1.95,8.59-4.79,13.22-6.51
		c8.99-4.8,17.64-10.23,26.61-15.06c-0.37,0.8-0.91,1.45-1.61,1.95c-6.239,4.49-12.72,8.64-18.87,13.25
		c-6.27,5.64-14.18,9.07-20.61,14.48c13.37-6.38,26.149-13.95,39.41-20.56c1.779-1.05,3.89-0.52,5.85-0.52
		c-1.91,2.62-5.3,3.57-7.9,5.39c-6.409,4.02-13.45,7.15-19.5,11.69c7.64-2.34,14.56-6.65,22.209-8.95
		c-2.52,2.92-6.39,4.18-9.109,6.9c-5.271,3.93-11.85,6.04-16.23,11.18c12.3-3.78,24.1-9.1,36.35-13.05
		c-2.271,2.76-5.78,4.12-8.58,6.28c-12.98,5.76-26.33,10.67-39.43,16.16c1.01,0.54,2.12-0.19,3.14-0.36
		c13.69-4.23,27.14-9.29,40.96-13.06c-2.61,2.78-6.89,3.05-9.57,5.75c2.17-0.06,4.32-0.33,6.47-0.59l-0.64,1.41
		c-5.2,2.06-10.78,3.39-15.63,6.16c6.99-0.42,13.8-3.5,20.85-1.66c-5.779,3.41-12.88,4.11-19.1,6.68c-0.08,0.18-0.22,0.52-0.29,0.69
		c7.64-0.88,15.17-3.01,22.91-2.71c3.68-0.1,7.34-0.72,11.03-0.52c-0.9,0.43-1.841,0.78-2.801,1.04
		c-16.14,3.6-32.409,6.66-48.52,10.39c8.79,0.38,17.4-2.7,26.18-1.69c5.971-0.39,12.061,0.15,17.891,1.26
		c-9.87,2.4-20.101,3.03-29.91,5.71c-6.61,0.86-13.18,2.23-19.84,2.63c3.18,1.13,6.6,0.31,9.87,0.21
		c10.73-0.53,21.44-1.26,32.18-1.66c2.979-0.04,6.12-0.91,8.979,0.31c-4.569,0.9-9.199,1.51-13.68,2.81
		c-7.49,0.94-15.03,1.27-22.54,1.91c-2.67,0.28-5.46,0.08-7.98,1.15c9.35,0.41,18.71,0.13,28.06,0.56c0.59,0.82,1.17,1.65,1.74,2.5
		c6.779,0.93,13.649,0.98,20.41,2.05c-5.54,1.86-11.79,0.67-17.551,1.91c3.091,1.58,6.71,1.28,9.99,2.25
		c0.05,0.22,0.16,0.65,0.22,0.87c-10.949-0.13-21.899-0.59-32.85-0.7c-4.71,0.77-9.47,0.41-14.21,0.52
		c1.37,0.63,2.83,1.03,4.34,1.18c10.63,1.29,21.25,2.58,31.87,3.89c1.75,0.25,3.66,0.23,5.17,1.29c-6.83,0.33-13.7-1.32-20.47-0.23
		c7.58,1.62,15.26,2.78,22.859,4.32c0.04,0.2,0.141,0.59,0.19,0.78c-9.7-0.72-19.34-2-29.02-2.88c-0.17,0.24-0.5,0.71-0.66,0.94
		c6.75,4.39,15.59,3.6,22.59,7.36c-2.601,0.77-5.54-0.96-7.91,0.53c8.08,2.63,16.43,4.42,24.45,7.22c-1.8,0.05-3.601-0.1-5.36-0.45
		c-12.229-2.5-24.42-5.14-36.68-7.45c-6.09-0.51-12.19-0.51-18.22-1.53c18.21,8.81,37.98,13.98,56.87,21.17
		c0.75,0.34,1.48,0.74,2.171,1.2c-10.44-2.1-20.461-5.95-30.971-7.77c-8.07-2.33-16.06-4.95-24.08-7.43c1.4,1.9,4,2.93,6.29,3.18
		c0.41,0.55,0.37,1.21,0.04,1.78c-2.8-0.95-5.59-2.08-8.56-2.41c4.51,3.45,10.4,4.65,14.98,7.96c0.03,0.159,0.1,0.479,0.14,0.64
		c-4.37-1.45-8.6-3.31-13-4.64c4.61,4.55,11.95,5.47,16.51,10.06c-2.78-0.59-5.4-1.67-8.02-2.73c-0.29,2.61,4.05,2.5,4.49,4.98
		c-4.13-0.83-7.62-3.53-11.79-4.17c1.52,1.58,3.82,2.39,4.79,4.46c-6.22-2.23-11.64-6.25-17.84-8.54c2.82,2.64,6.41,4.26,9.59,6.41
		c11.73,7.51,23.98,14.27,35.3,22.37c-15.37-7.721-29.68-17.431-44.919-25.4c2.35,2.26,5.11,4.021,7.66,6.04
		c7.85,7.24,17.14,12.67,25.4,19.41c-1.74-0.21-3.16-1.271-4.61-2.16c-7.16-4.55-14.27-9.19-21.41-13.77
		c-1.23-0.79-2.51-1.561-3.96-1.851c8.41,6.68,17.1,13.021,25.56,19.65c0.7,0.529,1.2,1.22,1.5,2.069
		c-5.27-2.96-10.08-6.699-15.44-9.489c0.38,1.18,0.76,2.37,1.14,3.55c-6.5-3.92-12.05-9.311-18.73-12.91
		c8.02,7.64,16.66,14.61,24.91,22c1.81,1.71,3.92,3.16,5.26,5.3c-10.5-7.109-19.66-16.12-30.08-23.37
		c6.32,7.021,13.69,12.99,20.22,19.801c0.19,0.39,0.57,1.18,0.76,1.569c-3.36-2.069-6.89-3.71-10.68-4.819
		c-5.49-4.011-10.12-9.101-15.44-13.341c4.84,7.511,12.35,13.051,17.26,20.58c3.11,4.79,7.47,8.69,10.3,13.67
		c-2.56-0.859-4.8-2.479-7.05-3.93c-6.75-6.25-12.67-13.38-19.71-19.32c-3.43-3.149-6.31-6.84-9.83-9.899
		c7.63,11.17,16.62,21.38,24.72,32.22c3.06,3.45,4.69,7.811,7.27,11.58c1.14,1.96,2.73,3.77,3.1,6.08
		c-8.31-8.95-15.66-18.76-23.78-27.87c-0.12,0.78-0.36,2.34-0.47,3.12c-6.55-7.14-11.23-15.98-18.83-22.1
		c1.05,3.199,3.25,5.84,4.92,8.739c7.6,12.36,15.7,24.42,23.05,36.931c-2.76-2.271-4.43-5.5-6.53-8.32
		c-5.54-7.76-10.5-15.97-16.76-23.18c-2.65-3.44-4.63-7.41-7.64-10.57c1.84,8.36,6.87,15.46,9.59,23.49
		c4.55,10.02,9.82,19.699,14.35,29.739c-1-0.72-1.7-1.72-2.29-2.77c-7.78-13.57-15-27.47-22.96-40.94c-0.42-0.1-1.27-0.3-1.69-0.39
		c0.55,3.83,2.06,7.45,2.78,11.26c3,7.261,4.54,14.99,7.6,22.221c2.38,6.859,5.58,13.47,7.37,20.52c-3.51-4.59-5.45-10.14-8.87-14.8
		c-4-7.17-6.66-15.021-10.6-22.22c1.92,9.25,5.98,17.949,8.06,27.17c0.32,4.71,2.07,9.189,2.34,13.909
		c-1.62-2.279-2.28-5.05-3.3-7.609c-4.42-11.63-8.49-23.391-13.08-34.95c-1.28-2.2-2.21-4.74-4.11-6.479
		c3.27,13.67,7.32,27.159,10.43,40.869c-3.14-4.609-4.01-10.34-6.43-15.319c-0.17-0.09-0.52-0.271-0.69-0.36
		c0.51,4.94,1.98,9.76,2.02,14.76c-1.6-2.899-2.03-6.26-2.97-9.399c-3.49-12.891-6.66-25.88-10.29-38.73
		c-0.04,1.7,0.05,3.41,0.35,5.09c2.22,11.73,4.82,23.4,6.74,35.2c-0.54-0.6-0.9-1.29-1.08-2.08c-2.59-9.01-4.23-18.27-6.89-27.25
		c-1.08,15.54,3.13,30.811,4.16,46.26c-0.53-0.92-0.95-1.899-1.08-2.96c-2.61-13.01-4.64-26.14-7.15-39.17
		c-0.12,14.17,3.09,28.17,3.19,42.32c-3.3-14.86-3.97-30.29-7.11-45.21c-0.16,9.99,1.23,19.93,1.21,29.92
		c-0.65,4.61-0.76,9.28-1.11,13.92c-1.05-0.34-2.12-0.729-2.89-1.55c-1.39-7.63-1.4-15.46-2.97-23.05
		c-1.05-3.721-0.86-7.67-2.09-11.34c-0.92,10.609-0.72,21.29-1.21,31.93c0.04,0.83-0.21,1.56-0.77,2.17
		c-0.57-11.96-0.69-23.95-1.2-35.91c-0.22-1.479-0.46-3.39-1.93-4.14c-1.3,11.45-1.48,23.03-3.08,34.439
		c-0.84-11.479,0.38-23,0.21-34.5c-0.47,0.78-0.77,1.62-0.89,2.521c-0.95,7.93-1.73,15.899-2.97,23.8c-1.65-0.9-0.29-3.81-2.21-4.12
		c-1.29,6.28-2.26,12.62-3.58,18.891c-0.14,1.84-1.78,3.13-3.39,3.72c0.58-14.67,4.01-29.16,4.14-43.83
		c-2.01,6.58-2.14,13.8-5.17,20.02c0.38-6.189,1.77-12.31,1.9-18.51c-0.85,0.95-1.69,1.91-2.53,2.87
		c0.44-6.52,2.46-12.83,2.83-19.36c-4.5,14.13-7.6,28.681-11.82,42.9c-0.32,1.729-1.83,3.33-3.75,3c0.33-3.34,1-6.67,0.68-10.021
		c-3.13,6.961-4.83,14.591-8.54,21.261c4.73-18.9,10.91-37.431,16.07-56.221c0.11-0.739,0.33-2.22,0.44-2.97
		c-3.61,8.271-6.12,16.98-9.73,25.24c-2.27,3.63-3.94,7.59-6.1,11.29c-0.51-0.38-1.53-1.15-2.03-1.53
		c2.36-9.12,6.29-17.76,8.85-26.82c-0.73,0.841-1.25,1.82-1.7,2.83c-6.75,14.65-12.9,29.57-19.9,44.101
		c0.21-1.87,0.82-3.65,1.54-5.38c5.37-13.511,10.95-26.95,16.37-40.44c0.41-1.06,0.65-2.16,0.72-3.3c-4,6.75-6.69,14.26-11.5,20.51
		c-2.62,3.69-4.22,8.13-7.38,11.4c0.2-1.91,0.45-3.8,0.74-5.69c-3.22,2.63-4.85,6.72-7.45,9.94c-0.34-2.69,1.47-4.95,2.39-7.34
		c3.79-7.71,6.33-15.96,10.72-23.37c2.72-5.87,6.74-11.23,8.58-17.42c-8.66,13.069-16.39,26.76-25.2,39.75
		c-0.81,0.149-2.43,0.47-3.25,0.62c4.77-10.99,13.05-20.36,16.08-32.12c1-3.301,3.63-5.851,4.49-9.2
		c-13.2,13.33-23.76,28.979-35.99,43.17c0.27-1.57,1.37-2.78,2.22-4.061c7.48-10.409,15.14-20.689,22.61-31.109
		c2.5-3.58,5.53-6.96,6.52-11.34c-3.17,1.5-4.58,5.14-7.75,6.64c1.4-3.43,4.27-6,6.18-9.14c-0.8,0.35-1.57,0.79-2.14,1.479
		c-10.8,11.63-21.58,23.29-32.4,34.9c-1.26,1.35-2.45,2.87-4.18,3.66c10.18-12.44,21.11-24.24,31.62-36.4
		c1.53-1.88,3.4-3.52,4.54-5.68c-8.98,7.33-16.13,16.779-25.47,23.729c-5.79,4.63-10.79,10.32-16.92,14.471
		c2.78-4.79,7.11-8.48,10.38-12.94c5.59-8.2,13.82-14.16,19.76-22.05c-12.27,9.979-23.75,20.91-36.19,30.67
		c1.09-2.15,3.16-3.53,4.83-5.19c12.77-11.989,25.84-23.64,38.44-35.8c-2.85,0.97-5.26,2.88-7.86,4.35
		C45,199.66,34.11,208.48,22.99,217c-0.98,0.68-1.92,1.58-3.18,1.69c11.83-11.11,25.14-20.61,36.09-32.65
		c-2.1,0.66-3.85,2.05-5.64,3.27c-7.08,4.891-14.15,9.761-21.22,14.65c-1.22,0.82-2.44,1.71-3.89,2.05
		c2.65-3.66,7.12-5.75,9.7-9.529c-5.48,2.6-10.29,6.68-16.07,8.579c9.14-7.92,19.89-13.97,28.13-22.949
		c-4.77,2.04-9.16,4.859-13.86,7.05c-8.38,3.08-15.95,7.91-24.12,11.47c1.6-2.81,4.42-4.71,6.66-7c9.63-6.16,19.77-11.53,29.4-17.71
		c2.56-2.15,5.42-3.88,8.18-5.76c-5.35,0.77-9.93,4.17-15.01,5.92c-10.37,3.18-20.05,8.21-30.24,11.9
		c1.55-2.521,4.59-3.45,6.56-5.551c1.99-2.06,4.58-3.359,6.68-5.279c2.62-2.471,6.26-3.42,8.85-5.92
		c-3.71,0.75-7.25,2.149-10.97,2.859C12.5,175,6.4,177.67,0,179.17v-3.63c12.59-5.021,25.52-9.15,38.04-14.34
		c-12.83,2.93-25.42,6.9-38.04,10.62v-1.4c11.62-4.21,23.67-7.29,34.97-12.35c3.36-1.28,6.87-2.18,10.15-3.68
		c-2.62,0.01-5.14,0.75-7.67,1.32c-10.97,2.57-21.95,5.1-32.91,7.69c-1.5,0.3-3,0.81-4.54,0.66v-0.7
		c10.3-3.36,21.09-5.28,31.22-9.08c-9.55,0.93-18.85,3.64-28.41,4.51c1.81-1.22,4.03-1.41,6.08-1.95
		c13.33-3.22,26.81-5.83,40.07-9.32c-8.05-0.01-15.88,2.84-23.96,2.26c-2.47-0.16-5.09,0.59-7.44-0.43
		c9.81-2.37,19.96-3.26,29.69-5.85c-12.99,0.72-25.93-0.98-38.94-0.64c1.37-1.45,3.43-1.66,5.14-2.49c0.9-1.28,1.27-2.88,0.2-4.19
		c-4.27-1.77-9.02-3.07-13.65-2.26v-4.5c9-0.22,18.01,0.01,27.01-0.28l-0.39-0.7c-8.6-0.74-17.2-1.41-25.8-2.03L0,127.02v-3.89
		c14.43,0.12,28.83,1.94,43.26,1.57c-2.3-0.74-4.6-1.44-6.88-2.23c-4.7-1.32-9.76-1.35-14.2-3.56c-7.02-3.22-14.65-4.58-22.18-6.03
		v-3.8c4.9-1.77,9.96,0.16,14.9,0.73c8.38,1.2,16.67,3.24,25.12,3.88c-12.71-5.2-26.05-8.51-39.24-12.28L0,101.8v-1.99
		c4.95,0.97,9.9,1.96,14.89,2.7c-3.64-3.1-9.19-3.12-12.95-6.21c9.5,1.63,18.68,4.81,28.17,6.47c-5.3-3.32-11.75-4.36-17.27-7.33
		c7,0.02,13.39,4.26,20.42,4.33c-8.25-3.55-16.68-6.67-24.98-10.11c-1.42-0.63-2.95-1.17-4.07-2.29c6.81,1.46,13.28,4.29,20.12,5.56
		c-0.64-0.83-1.93-2.49-2.57-3.32c6.68,1.56,12.79,5.13,19.55,6.28C27.8,88.78,13.58,83.01,0,76.01V74.9
		c1.29-0.2,2.58-0.33,3.88-0.39c6.85,2.35,13.39,5.56,20.3,7.7c-1.01-1.3-2.05-2.57-3.05-3.87c5.46,1.32,10.29,4.52,15.75,5.93
		c6.54,2.33,12.39,6.28,18.93,8.62c-9.14-8.74-21.03-13.87-30.39-22.33c-3.13-2.62-6.95-4.5-9.55-7.7c0.57,0.25,1.73,0.75,2.31,1
		C31.19,71.47,43.89,79.62,57,87.06c-3.34-4.07-8.54-6.14-12.13-9.99c1.48,0.3,2.96,0.64,4.45,0.96
		c-7.26-6.58-15.5-12.04-22.97-18.39c-1.53-0.93-1.67-2.79-1.94-4.38c1.58,0.22,2.75,1.36,4.03,2.19
		c7.47,5.2,14.82,10.57,22.31,15.74c1.74,1.27,3.82,1.93,5.88,2.46c-3.2-4.42-7.96-7.52-11.61-11.6c0.36,0.09,1.1,0.26,1.47,0.35
		c6.38,4.53,12.18,9.84,18.6,14.33c-7.11-8.17-15.94-14.71-23.14-22.81c3.51,1.15,5.89,4.25,9.12,5.95
		c6.25,3.49,10.6,9.57,16.77,13.15c-4.62-5.33-9.72-10.23-14.27-15.62c-4.72-7.16-11.55-12.7-15.81-20.19
		c-2.17-3.19-4.84-6.04-6.72-9.43c1.82,0.76,2.99,2.39,4.36,3.71C46.95,45.26,58.09,57.46,69.87,69c-0.35-1.67-1.68-2.86-2.6-4.22
		C60.36,53.94,51.59,44.44,43.72,34.3c-2.27-3.16-5.22-5.89-6.96-9.4c0.32,0.26,0.96,0.77,1.28,1.03
		C50.3,39.33,61.52,53.7,73.98,66.91c-7.3-10.79-15.71-20.82-23.37-31.37c-1.26-1.84-2.93-3.46-3.69-5.6
		c2.45,1.95,4.16,4.63,6.18,6.98c7.7,9.34,15.02,19,22.91,28.18c-0.54-2.2-2.13-3.88-3.33-5.72c-7.2-10.36-14.7-20.51-21.64-31.04
		c2.51,1.18,3.78,4.07,5.65,6.05c3.88,4.51,6.95,9.77,11.41,13.75c-6.3-11.01-13.75-21.35-20.06-32.37
		c2.53,0.93,4.48,2.93,6.49,4.66c6.44,8.33,11.94,17.37,18.39,25.69c-0.71-3.94-3.38-7.16-4.86-10.83l0.75-0.09
		c4.98,6.78,9.1,14.17,13.96,21.03c0.27,0.19,0.8,0.55,1.07,0.73c-0.07-1.37,0.01-2.82-0.72-4.05
		c-6.15-12.47-12.59-24.8-18.76-37.25c-0.8-1.73-1.97-3.35-2.14-5.31c1.38,0.68,3.4,0.68,4.07,2.33
		c5.29,8.96,10.08,18.2,15.32,27.19c-1.17-6.62-5.51-12.29-6.53-18.94c5.84,9.73,9.77,20.55,15.75,30.18
		c-2.99-9.9-8.18-19.09-10.66-29.13c5.92,11.35,10.4,23.41,16.16,34.85c0.39-0.01,1.16-0.03,1.55-0.04
		C91.66,37.75,84.86,18.88,78.17,0L78.17,0z"/>
	<path fill="#41AABA" d="M79.2,0h32.93c0.87,9.28,1.66,18.61,1.51,27.94c0.53,8.72,2.18,17.37,2.03,26.12
		c-3.43-17.47-5.82-35.16-9.3-52.63c-0.19-0.05-0.56-0.15-0.75-0.2c0.02,2.91,0.26,5.81,0.21,8.73c-0.69,7.33,1.34,14.53,1.64,21.83
		c-2.78-6.43-3.53-13.57-5.97-20.13c-0.47,1.5-0.12,3.06,0.09,4.58c1.75,10.54,4.28,21.03,4.11,31.78c-1.31-2.79-2.06-5.8-3.19-8.66
		c-4.07-8.13-5.9-17.13-9.3-25.52c-0.08,1.74,0.16,3.48,0.63,5.16c2.3,8.67,4.67,17.32,6.99,25.98c0.76,2.95,1.73,5.88,1.77,8.96
		C97.31,38.31,91.99,22.69,86.65,7.08c-0.63-1.4-0.84-3.14-2.12-4.14c1.38,6.22,3.18,12.33,4.85,18.46
		c0.38,1.24,0.44,2.54,0.23,3.81C86.11,16.82,82.84,8.34,79.2,0L79.2,0z"/>
	<path fill="#41AABA" d="M113.53,0h17.36c-0.86,5.49-0.93,11.09-2.18,16.52c-1.35,7.04-0.27,14.44-2.05,21.36
		c-0.46-6.61-0.9-13.21-1.19-19.83c0.04-4.92-1.85-9.53-2.79-14.3c-1.87,6.84-0.41,14.14-1.3,21.15
		c-2.09-4.65-0.91-10.47-3.17-14.86c-0.27,9.4,0.67,18.79,0.5,28.19c-0.71-2.03-0.96-4.17-1.22-6.29
		C116.18,21.29,114.86,10.64,113.53,0L113.53,0z"/>
	<path fill="#3EA9B9" d="M134.48,0h5.54c-0.93,6.67-1.86,13.35-3.01,19.98c-0.94,3.59-2.12,7.11-2.85,10.75
		c-0.08-0.09-0.25-0.28-0.33-0.37C133.74,20.24,134.37,10.12,134.48,0L134.48,0z"/>
	<path fill="#3DA8B9" d="M141.17,0h3.89c-2.56,16.37-5.09,32.76-7.6,49.14c-0.6-6.41,0.64-12.79,1.04-19.17
		C139.45,19.98,140.31,9.99,141.17,0L141.17,0z"/>
	<path fill="#41AABA" d="M152.98,0h55.19c-0.49,0.65-2.23,2.78-0.58,2.94c1.17-0.59,1.82-1.79,2.33-2.94h12.4
		c-0.98,2.26-2.31,4.37-3.08,6.72c1.72-2.25,3.42-4.51,5.19-6.72h2.54c-1.83,4-3.35,8.11-5.73,11.82
		C225.63,8.23,229.72,4.31,233.43,0h0.641c-2.65,5.06-7.15,8.98-9.57,14.15c2.22-0.41,3.29-2.48,4.71-3.98
		c2.99-3.36,5.93-6.76,8.86-10.17h2.47c-2.53,3.17-5.39,6.14-7.49,9.62l0.98,0.29c3.39-3.04,6.31-6.6,9.45-9.91h3.149
		c-3.22,4.93-7.63,8.98-10.8,13.93c5.78-4.02,10.78-8.97,15.75-13.93h3.77c-4.779,5.22-9.77,10.26-14.319,15.69
		C246.72,10.67,252.08,5.29,257.52,0h3.37c-6.77,7.16-13.6,14.26-20.319,21.47c-1.08,1.08-1.561,2.55-2.17,3.91
		c1.729-0.91,3.6-1.65,5.09-2.94c8.39-7.37,16.55-15,24.88-22.44h1.479c-6.75,6.54-13.479,13.09-20.13,19.73
		c-1.13,1.13-2.39,2.39-2.239,4.16c3.96-2.81,7.449-6.29,11.739-8.64c2.78-1.57,4.851-4.4,7.971-5.29
		c-3.021,3.38-6.54,6.27-9.79,9.42c-2.46,2.2-4.601,4.8-7.49,6.47c-0.7,0.28-0.4,1.04-0.271,1.58c0.87-2.13,3.311-2.689,4.841-4.22
		C263.67,15.45,273.03,7.88,282.12,0h1.899c-8.659,7.68-17.479,15.19-25.92,23.1C268.69,15.97,277.78,6.7,288.64,0h2.62
		c-8.609,7.69-17.779,14.77-26.13,22.74c7.91-4.96,14.8-11.64,22.93-16.33c-10.88,9.73-22.59,18.49-33.68,27.97
		c-2.08,1.6-3.64,3.73-5.28,5.76c7.83-4.94,14.99-10.88,22.811-15.85c-2.391,3.95-7.4,5.6-9.91,9.51c4.63-2.1,8.18-6.31,13.11-7.76
		c-7.58,6.13-15.62,11.67-23.091,17.93c11.101-6.729,21.421-14.7,32.421-21.61c9.079-4.99,17.35-11.33,26.39-16.37
		c-1.311,2.21-3.24,3.979-4.94,5.88c-12.5,9.21-25.319,17.99-37.92,27.05c6.71-2.99,12.55-7.65,19.021-11.1
		c7.71-3.66,14.7-8.66,22.279-12.56c-3.81,4.52-9.59,7.01-13.689,11.33c-5.95,4.53-12,8.98-17.42,14.13
		c9.78-5.22,19.16-11.18,29.02-16.25c-1.3,1.68-3.29,2.56-4.989,3.771c-9,5.93-18.4,11.26-27.15,17.54
		c12.479-6.43,24.45-13.85,36.93-20.3c-2.26,3.27-6.54,4.43-9.069,7.49c3.6-1.26,6.869-3.38,10.58-4.33
		c-1.58,1.96-3.61,3.49-5.45,5.2c-13.91,8.28-28.13,16.04-42.12,24.2c-1.99,1.12-3.96,2.28-5.73,3.71
		c8.021-4.28,16.21-8.24,24.33-12.33c10.8-4.41,21.04-10.04,31.63-14.92c-0.37,0.76-0.92,1.34-1.659,1.74
		c-5.61,3.439-11.471,6.479-16.851,10.3C288.5,51.78,279,56.4,269.98,61.83c15-6.68,29.63-14.16,44.51-21.1
		c3.18-1.37,6.149-3.34,9.529-4.18c-11.289,8.9-24.789,14.19-37.119,21.36c8.869-3,17.149-7.57,25.979-10.69
		c3.41-0.72,6.62-2.12,10.021-2.87c-3.83,3.52-9.15,5.04-13.301,8.21c-9.8,5.05-19.899,9.5-29.81,14.33
		c5.35-0.9,10.11-3.81,15.4-4.96c-4.051,3.01-9.08,4.32-13.28,7.12c0.39,2.87,1.45,5.57,2.32,8.32
		c-3.601,1.72-7.391,3.04-11.16,4.34c3.949-0.61,7.649-2.21,11.47-3.32c0.74,2.2,1.5,4.4,2.18,6.63c-2.42-1.01-1.68,2.42,0.24,0.78
		c0.54,1.65,1.16,3.29,1.57,5c-2.79,1.27-5.971,1.52-8.67,2.96c2.359-0.13,4.72-0.54,6.949-1.37c0.671,0.56,1.271,1.2,1.801,1.9
		c-4.301,0.12-8.49,1.74-12.521,3.2c4.561-1.03,9.16-1.91,13.75-2.85c0.891,2.68,1.69,5.39,2.561,8.08
		c2.739,0.92,5.659,0.75,8.51,0.98c6.97,0.5,13.939,0.98,20.899,1.58l-0.05,0.37c-7.3,1.12-14.56,2.45-21.8,3.9
		c7.54-0.06,15.06-0.52,22.59-0.72c-1.149,1.11-2.27,2.25-3.46,3.32c-11.05,1.74-22.24,2.62-33.24,4.54
		c8.11,0.03,16.17-0.94,24.261-1.38c-2.11,2.39-6.391,1.56-8.301,4.18c2.011,0.07,4.051,0.09,6.08,0.15
		c-0.08,0.19-0.229,0.55-0.3,0.74c-9.58,1.35-19.32,1.42-28.82,3.22c5.171,0.01,10.341,0.02,15.511-0.14
		c-0.511,0.61-1.511,1.84-2.021,2.45c6.15,1.31,12.5,0.46,18.74,0.67c-0.2,2.3-0.26,4.61-0.37,6.92c-5.2,0.57-10.56-0.4-15.649,1.01
		c5.199-0.24,10.38,0.45,15.569,0.53c-0.12,2.43-0.229,4.86-0.34,7.29c-3.83-0.28-7.65-0.01-11.47,0.11
		c3.7,1.07,7.63,0.82,11.37,1.75c-0.391,5.17-0.58,10.35-0.841,15.52c6.82,0.69,13.681,0.55,20.521,0.9
		c3.89,0.27,7.31,2.31,11.14,2.89c2.38,0.78,5.09,0.67,7.25,2.03c-0.87-0.02-2.609-0.05-3.479-0.07
		c-19.63-2.12-39.15-5.81-58.92-6.03c12.479,2.49,25.04,4.67,37.569,6.94c-4.659,0.93-9.54,0.62-14.25,0.03
		c-7.359-1.12-14.76-1.97-22.109-3.23c0.51,0.47,1.51,1.39,2.02,1.86c-0.47,0.28-1.399,0.85-1.87,1.13c4,1.37,8.5,1.58,12.21,3.62
		c-7.529-0.34-14.79-2.8-22.31-3.2c10.46,2.51,20.94,4.97,31.44,7.33c0.399,1.51,0.819,3.02,1.239,4.53
		c-9.569-2.011-19.08-4.36-28.7-6.091c9.721,3.24,19.761,5.471,29.551,8.521c0.18,0.66,0.54,2,0.729,2.66
		c-7.41-1.75-14.81-3.58-22.24-5.2c-0.18,2.38,2.61,2.05,4.04,2.85c6.46,2.08,12.931,4.12,19.381,6.24
		c1.029,3.46,2.119,6.92,2.829,10.47c-7.649-0.58-14.71-4.189-22.25-5.479c-4.449-0.63-8.54-2.891-13.06-3.03
		c11.92,4.22,23.62,9.07,35.44,13.57c2.399,0.89,5.18,1.72,5.949,4.52c-8.87-2.56-17.5-5.93-26.46-8.13
		c-5.989-1.57-11.64-4.93-17.85-5.24c0.91,1.96,2.92,3.15,4.79,4.08c14.53,6.54,29.18,12.79,43.76,19.221
		c2.21,1.029,4.57,1.83,6.45,3.449c-7.87-2.689-15.58-5.869-23.561-8.239C295.9,207.72,283.49,202.3,270.88,197.39
		c-0.2,0.051-0.61,0.13-0.81,0.181c5.6,2.64,10.59,6.319,15.979,9.319c3.61,3.16,8.82,4.221,12.03,7.721
		c-10.44-2.681-20.061-7.58-29.87-11.91c-1.31-0.601-2.66-1.061-4.06-1.34c2.159,1.3,4.34,2.56,6.51,3.859
		c-0.03,0.471-0.07,1.41-0.09,1.88c4.56,2.891,9.38,5.36,13.77,8.521c11.74,6.649,23.67,12.97,35.42,19.61
		c2.55,1.34,4.49,3.52,6.601,5.439c-1.511-0.01-2.891-0.46-4.141-1.34c-18.96-9.66-37.76-19.7-57.239-28.23
		c15.109,9.37,30.829,17.75,45.92,27.17c0.1,0.58,0.29,1.74,0.38,2.32c-2.91-0.359-5.891-0.83-8.391-2.47
		c-9.09-5.09-18.449-9.59-27.89-13.98c5.8,4.65,12.34,8.311,18.47,12.511c2.82,2.069,6.24,3.5,8.46,6.26
		c-5.149-2.37-9.87-5.601-15.06-7.88c-0.47,0.029-1.41,0.09-1.88,0.12c4.819,4.84,11.05,8.1,16.39,12.35
		c0.05,0.39,0.14,1.17,0.19,1.55c-0.471-1.359-1.9-1.76-2.98-2.47c-9.609-5.71-18.88-11.99-28.6-17.51
		c8.54,6.91,17.93,12.71,26.83,19.149c2.37,1.851,5.35,3.16,7.04,5.71c-4.15-2.51-8.221-5.149-12.341-7.71
		c-8.55-5.67-17.609-10.42-26.399-15.66c1.09,2.521,4.18,3.21,5.63,5.521c-7.03-2.98-12.57-8.82-19.6-11.88
		c5.38,4.52,11.619,8.189,16.38,13.34c-2.07-0.71-3.67-2.37-5.811-2.89c3.49,3.689,7.91,6.38,11.79,9.649
		c4.5,3.28,8.51,7.32,13.29,10.141c-0.29,0.09-0.87,0.27-1.16,0.359c-6.67-4.479-13.09-9.3-19.67-13.899
		c-0.59-0.48-1.26-0.721-2.01-0.71c2.62,2.739,6.44,4.5,8.16,7.92c-7.58-5.11-14.5-11.19-22.18-16.15
		c9.399,8.74,19.76,16.44,29.6,24.7c-0.37,0.12-1.11,0.359-1.48,0.49c-7.739-5.29-14.35-12.431-23.06-16.16
		c5.91,6.21,12.91,11.29,18.72,17.62c-1.479,0.38-2.979,0.649-4.489,0.84c-9.25-7.87-18.351-15.931-27.881-23.45
		c8.761,8.41,17.9,16.44,26.761,24.76l-0.721,1.46c-9.439-8.46-19.43-16.27-29.229-24.29c7.37,8.23,16.22,15.15,23.32,23.57
		c-4.301-2.56-7.7-6.39-11.671-9.43c5.601,7.029,12.66,12.83,18.69,19.51c-0.75,0.2-2.26,0.6-3.01,0.8
		c-1.82-1.71-3.721-3.34-5.26-5.3c-2.141-4.17-5.65-7.48-9.98-9.29c-2.47-2.14-4.75-4.47-7.11-6.72
		c0.351,2.239,2.42,3.729,3.431,5.71c-0.561-0.011-1.69-0.04-2.25-0.05c-3.17-3-6.03-6.4-9.67-8.86
		c1.529,3.41,4.729,5.63,6.84,8.649c-0.32,0.021-0.96,0.08-1.28,0.11c-2.08-1.979-3.82-4.42-6.44-5.72
		c1.021,2.29,2.711,4.16,4.351,6.01c-3.22,0.15-6.4,1.45-9.62,0.9c-0.93,1.3-2.27,2.17-3.74,2.739c-1.41-1.43-2.72-3.05-4.7-3.689
		c0.71,1.67,1.9,3.06,2.98,4.5c-2.64,1.36-5.38,2.649-7.7,4.54c-0.18,0.29-0.52,0.88-0.7,1.18c-0.24-1.38-1.03-2.03-2.37-1.95
		c-0.01,0.98,0.19,1.92,0.6,2.83c1.29,3.721,4.05,6.67,5.83,10.15c0.89,1.82,1.95,3.57,3.47,4.95c3.74,5.66,7.09,11.58,10.69,17.33
		c1.12,2.279,2.359,4.529,2.97,7.02c-3.51-4.35-5.86-9.85-10.05-13.52c0.82,1.89,1.71,3.72,2.371,5.68
		c-3.121-2.16-4.42-6.021-7.21-8.561c-2.36-2.119-3.5-5.289-6.03-7.22c1.06,3.181,2.98,5.98,4.11,9.13
		c-1.44-0.3-2.8-1.069-3.54-2.37c-3.86-5.939-7.4-12.09-11.14-18.109c-0.67-0.72-0.89-2.16-2.03-2.25c0.92,2.27,1.56,4.66,2.62,6.88
		c5.1,9.979,10.38,19.86,15.54,29.81c1.18,2.351,2.47,4.66,3.46,7.11c-4.98-6.17-8.15-13.66-12.62-20.23
		c1.62,5.53,4.93,10.48,6.92,15.91c2.07,6.391,5.43,12.261,7.7,18.58c-1.26-0.47-2.09-1.58-3.03-2.45
		c-0.47,0.271-1.41,0.801-1.88,1.07c-5.96-10.35-10.82-21.37-17.88-31.06c0.23,1.87,1.08,3.569,1.84,5.27
		c3.81,8.771,7.71,17.5,11.6,26.24c1.12,2.87,2.66,5.61,3.34,8.64c-2.14-3.279-3.78-6.85-5.59-10.319
		c-3.45-6.99-6.96-13.96-11.5-20.32l-0.72-0.21c0.99,3.96,3.82,7.68,3.49,11.84c-5.67-12.75-11.59-25.38-17.34-38.09
		c0.25,2.08,1.21,3.97,1.97,5.899c5.28,13.25,10.75,26.431,16.13,39.641c1.65,4.939,4.43,9.57,5.31,14.72
		c-2.39-5.43-4.88-10.8-7.24-16.24c-4.73-10.64-9.17-21.409-14.14-31.939c0.71,3.7,2.21,7.34,1.32,11.18
		c-3.2-7.36-6.45-14.7-9.39-22.16c0.39,3.181,1.71,6.13,2.71,9.15c3.27,9.29,6.64,18.55,9.83,27.87c-1.35-0.99-1.7-2.71-2.39-4.13
		c-2.33-5.66-4.7-11.301-7.04-16.96c1.91,8.689,5.45,16.939,8.01,25.46c0.61,1.899,1.19,3.81,1.54,5.79
		c-0.63-0.75-1.09-1.591-1.36-2.521c-3.07-7.93-6.14-15.87-9.2-23.8c-0.06,1.96,0.63,3.82,1.21,5.67
		c3.54,11.17,7.22,22.3,10.69,33.5h-4.56c-1.27-1.4-2.48-2.9-2.96-4.76c-4.18-12.38-8.38-24.771-12.35-37.21
		c0.12,1.37,0.24,2.76,0.59,4.109c3.1,12.04,6.71,23.94,9.82,35.98c-2.88-3.19-3.14-8.01-5.36-11.67c-1.74-2.58-2.25-5.8-4.22-8.21
		c-2.29,1.35-0.3,4.56-0.61,6.72c-2.25-2.19-2.09-6.08-3.35-8.93c-2.86-10.55-6.68-20.771-9.94-31.181
		c1.68,10.48,4.48,20.761,6.64,31.16c0.94,4.3,1.82,8.62,2.72,12.931c-1.09-0.98-1.11-2.551-1.55-3.841
		c-2.25-8.02-4.13-16.13-6.28-24.17c-0.64-2.35-1.09-4.81-2.4-6.899c1.35,6.35,2.6,12.76,3.42,19.21c-1.52-1.82-1.17-4.7-2.78-6.3
		c0.3,7.77,2.73,15.319,3.21,23.09c0.14,3.35,0.82,6.649,1.27,9.97h-1.49c-1.91-8.33-3.61-16.7-5.6-25.01
		c-2.13-6.96-3.52-14.11-5.04-21.221c-0.11,2.221,0.08,4.45,0.39,6.65c2.12,13.2,4.34,26.38,6.41,39.58h-1.27
		c-1.49-7.32-2.81-14.68-4.45-21.96c0.32,7.36,1.61,14.64,2.43,21.96h-1.07c-1.58-7.4-2.76-14.9-5.18-22.09
		c-2.56-7.45-3.16-15.36-5.17-22.95c1.34,15.04,3.3,30.021,4.87,45.04h-2.62c-2-13.38-3.14-26.92-5.46-40.24
		c0.61,13.44,2.13,26.82,3.16,40.24h-1.58c-0.26-1.56-0.65-3.26-2.32-3.82c-0.12,1.271-0.21,2.54-0.28,3.82h-2.12
		c-0.5-3.32-0.71-6.68-1.57-9.93c-0.62-6.87-1.63-13.721-1.61-20.63c0.09-2.95-0.52-5.881-1.55-8.631
		c-0.89,3.521,0.25,7.391-1.39,10.721c-0.17-6.99-0.54-13.98-1.49-20.91c-0.69,7.11,0.11,14.32-0.82,21.43
		c0.04,5.65-0.12,11.3-0.06,16.95c-0.19,0.23-0.56,0.7-0.75,0.93c-0.56-7.029-1.17-14.069-1.35-21.13
		c-1.58,7.29-0.19,14.86-1.23,22.24c-0.45-0.93-0.63-1.95-0.63-2.97c-0.37-8.08-0.55-16.17-1.17-24.23
		c-0.61,10.05-0.76,20.13-1.01,30.21c-0.02,2-0.2,4.01-0.73,5.95h-1.97c-0.38-8.6,0.51-17.39-1.54-25.82
		c-0.13,0.051-0.4,0.16-0.53,0.21c-0.3,8.54-0.97,17.07-1.3,25.61h-1.53c0.19-7.34,0.23-14.68,0.3-22.02
		c-1.47,0.17-1.3,2.069-1.79,3.109c-0.95,6.271-1.46,12.601-2.11,18.91h-0.63c0.06-11.71,1.1-23.39,1.15-35.1
		c0.24-3.87,1.02-7.931,0.08-11.73c-1.02,11.53-1.78,23.13-4.54,34.41c-0.15,0.04-0.45,0.11-0.6,0.14
		c0.03-1.609,0.06-3.22,0.07-4.83c0.54-7.31-0.16-14.59,0.43-21.88c0.21-3.729,0.3-7.46,0.31-11.189
		c-1.42,5.96-1.65,12.109-2.58,18.149c-0.41,5.101-1.92,10.021-2.44,15.11c-0.81,5.63-1.46,11.28-2.27,16.92h-1.27
		c0.3-4.64,0.55-9.28,1.13-13.89c0.52-1.91,0.88-3.86,0.9-5.841c-0.56,0.131-1.67,0.4-2.23,0.53c-0.05-1.66-0.09-3.31-0.06-4.96
		c0.64-5.57,1.03-11.16,1.63-16.729c-1.81,3.96-1.57,8.6-3.55,12.489l-1.51,0.46c0.32-5.109,1.39-10.159,1.2-15.29
		c-1.66,7.601-2.89,15.29-4.29,22.94c-0.93,5.25-1.91,10.5-3.11,15.7c-0.12,0.09-0.36,0.28-0.48,0.37c0.3-4.98,1.41-9.9,1.11-14.91
		c-1.78,6.13-2.68,12.61-3.97,18.91l-1.78,0.21c0.49-3.29,0.82-6.601,1.44-9.87c-1.5,3.11-2.15,6.54-2.96,9.88H85.2
		c2.74-15.66,5.98-31.24,8.31-46.95c-3.88,15.58-7.14,31.32-10.87,46.95h-3.17c-0.2-5.67,1.51-11.15,1.79-16.78
		c-2.18,4.75-2.79,10.271-5.14,14.84c0.61-8.119,3.24-15.93,4.42-23.979c-3.14,8.47-5.17,17.3-7.86,25.92h-0.66
		c3.56-17.83,9.12-35.24,12.65-53.07c-3.57,11.28-6.72,22.7-10.32,33.98c-0.22,0.78-0.57,1.51-1.03,2.18
		c2.91-13.79,7.14-27.27,10.32-41c-1.29,2.26-2.73,4.47-3.53,6.96c-3.88,11.811-7.59,23.67-11.62,35.42
		c-1.9,4.34-4.94,8.061-6.72,12.45c-0.38,0.96-0.95,1.79-1.72,2.49c2.92-12.98,8.16-25.42,9.73-38.7
		c-3.39,6.61-4.98,14.1-8.7,20.521c1.34-6.881,4.12-13.381,5.66-20.211c-2.89,5.19-4.11,11.36-7.62,16.12
		c3.24-10.819,7.61-21.29,10.65-32.17C64.54,296.65,60.4,308.8,55.01,320.4c-0.15,0.119-0.45,0.359-0.6,0.47
		c4.92-14.34,10.61-28.41,15.43-42.79c-6.6,14.56-12.33,29.51-18.7,44.17c-0.51,0.94-0.73,2.18-1.77,2.71
		c0.72-3.46,2.52-6.7,2.57-10.27c-1.22,1.819-2.22,3.779-3.4,5.64c-0.04-0.29-0.12-0.86-0.16-1.14
		c5.28-13.761,11-27.351,16.33-41.08c-6.52,12.33-11.51,25.43-17.86,37.85c-2.48,3.33-4.21,7.43-7.98,9.57
		c-1.46-2.95,0.54-5.721,1.52-8.431c1.11-2.699,2.24-5.38,3.35-8.069c0.82-2.03,1.71-4.021,2.44-6.08c0.71-1.681-0.4-3.57,0.44-5.21
		c3.59-8.33,7.58-16.471,11.23-24.771c-3.2,3.62-4.82,8.311-7.74,12.15c-4.09,6.939-7.76,14.14-11.65,21.2
		c-3.35,6.41-6.87,12.77-11.58,18.279l-0.84,0.41c2.91-6.34,6.25-12.47,9.33-18.72c4.73-9.86,10.34-19.31,14.54-29.39
		c-2.8,3.29-4.05,7.89-7.41,10.609c0.63-1.75,1.29-3.49,1.83-5.27c-6.41,6.68-11.6,14.52-16.58,22.34
		c-3.85,6.189-7.69,12.38-11.6,18.54c-1.25,2.16-3.33,3.63-5.37,4.99c9.48-17.71,20.12-34.801,30.03-52.29
		c1.08-1.931,2.33-3.78,3.05-5.88c-9.01,13.72-17.5,27.79-26.45,41.56c-1.67,2.51-3.14,5.17-5.18,7.42
		c2.8-5.38,6.08-10.5,9.14-15.729c3.86-6.41,7.74-12.801,11.61-19.2c3.82-6.41,7.78-12.73,11.54-19.16
		c0.01-0.18,0.02-0.54,0.03-0.72c-1.15,2.399-2.85,4.319-5.1,5.77c0.95-2.439,2.06-4.81,3.32-7.09c-2.67,2.67-4.56,6-6.91,8.94
		c-0.43-0.181-1.27-0.53-1.69-0.711c-2.77,3.891-5.57,7.761-8.33,11.65c-4.31,6.1-8.65,12.18-12.96,18.28
		c-1.21,1.66-2.4,3.34-3.75,4.89c0.53-1.76,1.42-3.37,2.35-4.939c2.02-3.2,3.76-6.551,5.52-9.891
		c6.54-10.05,13.37-19.92,19.95-29.95c-4.72,4.301-7.8,10.061-12.29,14.58c-6.19,7.79-12.08,15.82-18.12,23.73
		c-2.05,2.79-4.35,5.41-6.1,8.41L0,306.54v-2.75c9.97-13.99,20.25-27.75,30.07-41.83c-8.03,6.61-13.85,15.36-20.86,22.96
		c0.09-1.74,1.63-2.93,2.45-4.36c4.61-6.689,10.29-12.79,13.32-20.439c-6.92,7.46-13.05,15.63-20.11,22.96
		c0.16-0.37,0.49-1.1,0.66-1.47c5.41-7.2,11.09-14.2,16.72-21.23c1.74-1.6,3.34-3.439,4.14-5.71c-1.69,1.38-5.43,3.17-4.14,5.71
		c-2.56-0.26-3.61,3.49-5.53,4.91l-1.07-0.96c2.05-2.92,5.2-5.3,6.33-8.74C14.53,263.7,7.32,272.02,0,280.25v-4.11
		c7.18-8.6,14.91-16.79,21.64-25.729c-2.11,0.22-3.33,2.12-4.78,3.45c-4.89,5.13-10.01,10.029-14.77,15.27
		c-0.58-0.83-1.27-1.54-2.09-2.12v-1.45c4.32-4.869,8.96-9.46,13.09-14.489C8.55,255.01,4.29,259.28,0,263.5v-6.3
		c3.29-3.42,6.78-6.67,9.86-10.28c-3.26,2.12-6.65,4.05-9.86,6.271v-1.171c3.08-2.85,5.99-5.899,8.76-9.05
		C5.58,244.98,2.93,247.69,0,250.03v-12.19c2.45-2.35,5-4.59,7.7-6.64c-2.87,1.319-5.27,3.47-7.7,5.439v-6.729
		c1.12-0.601,2.38-1.18,2.98-2.37c-0.13-1.8-2.43,0.12-2.98,0.79v-49.16c6.4-1.5,12.5-4.17,19.04-5.08
		c3.72-0.71,7.26-2.109,10.97-2.859c-2.59,2.5-6.23,3.449-8.85,5.92c-2.1,1.92-4.69,3.22-6.68,5.279
		c-1.97,2.101-5.01,3.03-6.56,5.551c10.19-3.69,19.87-8.721,30.24-11.9c5.08-1.75,9.66-5.15,15.01-5.92
		c-2.76,1.88-5.62,3.609-8.18,5.76c-9.63,6.18-19.77,11.55-29.4,17.71c-2.24,2.29-5.06,4.19-6.66,7
		c8.17-3.56,15.74-8.39,24.12-11.47c4.7-2.19,9.09-5.01,13.86-7.05c-8.24,8.979-18.99,15.029-28.13,22.949
		c5.78-1.899,10.59-5.979,16.07-8.579c-2.58,3.779-7.05,5.869-9.7,9.529c1.45-0.34,2.67-1.229,3.89-2.05
		c7.07-4.89,14.14-9.76,21.22-14.65c1.79-1.22,3.54-2.609,5.64-3.27c-10.95,12.04-24.26,21.54-36.09,32.65
		c1.26-0.11,2.2-1.011,3.18-1.69c11.12-8.52,22.01-17.34,33.23-25.73c2.6-1.47,5.01-3.38,7.86-4.35
		c-12.6,12.16-25.67,23.811-38.44,35.8c-1.67,1.66-3.74,3.04-4.83,5.19c12.44-9.76,23.92-20.69,36.19-30.67
		c-5.94,7.89-14.17,13.85-19.76,22.05c-3.271,4.46-7.6,8.15-10.38,12.94c6.13-4.15,11.13-9.841,16.92-14.471
		c9.34-6.95,16.49-16.399,25.47-23.729c-1.14,2.16-3.01,3.8-4.54,5.68c-10.51,12.16-21.44,23.96-31.62,36.4
		c1.73-0.79,2.92-2.311,4.18-3.66c10.82-11.61,21.6-23.271,32.4-34.9c0.57-0.689,1.34-1.13,2.14-1.479
		c-1.91,3.14-4.78,5.71-6.18,9.14c3.17-1.5,4.58-5.14,7.75-6.64c-0.99,4.38-4.02,7.76-6.52,11.34
		c-7.47,10.42-15.13,20.7-22.61,31.109c-0.85,1.28-1.95,2.49-2.22,4.061c12.23-14.19,22.79-29.84,35.99-43.17
		c-0.86,3.35-3.49,5.899-4.49,9.2c-3.03,11.76-11.31,21.13-16.08,32.12c0.82-0.15,2.44-0.471,3.25-0.62
		c8.81-12.99,16.54-26.681,25.2-39.75c-1.84,6.189-5.86,11.55-8.58,17.42c-4.39,7.41-6.93,15.66-10.72,23.37
		c-0.92,2.39-2.73,4.649-2.39,7.34c2.6-3.221,4.23-7.311,7.45-9.94c-0.29,1.891-0.54,3.78-0.74,5.69c3.16-3.271,4.76-7.71,7.38-11.4
		c4.81-6.25,7.5-13.76,11.5-20.51c-0.07,1.14-0.31,2.24-0.72,3.3c-5.42,13.49-11,26.93-16.37,40.44c-0.72,1.729-1.33,3.51-1.54,5.38
		c7-14.53,13.15-29.45,19.9-44.101c0.45-1.01,0.97-1.989,1.7-2.83c-2.56,9.061-6.49,17.7-8.85,26.82c0.5,0.38,1.52,1.15,2.03,1.53
		c2.16-3.7,3.83-7.66,6.1-11.29c3.61-8.26,6.12-16.97,9.73-25.24c-0.11,0.75-0.33,2.23-0.44,2.97
		C96.18,230.6,90,249.13,85.27,268.03c3.71-6.67,5.41-14.3,8.54-21.261c0.32,3.351-0.35,6.681-0.68,10.021
		c1.92,0.33,3.43-1.271,3.75-3c4.22-14.22,7.32-28.771,11.82-42.9c-0.37,6.53-2.39,12.841-2.83,19.36c0.84-0.96,1.68-1.92,2.53-2.87
		c-0.13,6.2-1.52,12.32-1.9,18.51c3.03-6.22,3.16-13.439,5.17-20.02c-0.13,14.67-3.56,29.16-4.14,43.83
		c1.61-0.59,3.25-1.88,3.39-3.72c1.32-6.271,2.29-12.61,3.58-18.891c1.92,0.311,0.56,3.22,2.21,4.12c1.24-7.9,2.02-15.87,2.97-23.8
		c0.12-0.9,0.42-1.74,0.89-2.521c0.17,11.5-1.05,23.021-0.21,34.5c1.6-11.409,1.78-22.989,3.08-34.439
		c1.47,0.75,1.71,2.66,1.93,4.14c0.51,11.96,0.63,23.95,1.2,35.91c0.56-0.61,0.81-1.34,0.77-2.17c0.49-10.64,0.29-21.32,1.21-31.93
		c1.23,3.67,1.04,7.619,2.09,11.34c1.57,7.59,1.58,15.42,2.97,23.05c0.77,0.82,1.84,1.21,2.89,1.55c0.35-4.64,0.46-9.31,1.11-13.92
		c0.02-9.99-1.37-19.93-1.21-29.92c3.14,14.92,3.81,30.35,7.11,45.21c-0.1-14.15-3.31-28.15-3.19-42.32
		c2.51,13.03,4.54,26.16,7.15,39.17c0.13,1.061,0.55,2.04,1.08,2.96c-1.03-15.449-5.24-30.72-4.16-46.26
		c2.66,8.98,4.3,18.24,6.89,27.25c0.18,0.79,0.54,1.48,1.08,2.08c-1.92-11.8-4.52-23.47-6.74-35.2c-0.3-1.68-0.39-3.39-0.35-5.09
		c3.63,12.851,6.8,25.84,10.29,38.73c0.94,3.14,1.37,6.5,2.97,9.399c-0.04-5-1.51-9.819-2.02-14.76c0.17,0.09,0.52,0.271,0.69,0.36
		c2.42,4.979,3.29,10.71,6.43,15.319c-3.11-13.71-7.16-27.199-10.43-40.869c1.9,1.739,2.83,4.279,4.11,6.479
		c4.59,11.56,8.66,23.32,13.08,34.95c1.02,2.56,1.68,5.33,3.3,7.609c-0.27-4.72-2.02-9.199-2.34-13.909
		c-2.08-9.221-6.14-17.92-8.06-27.17c3.94,7.199,6.6,15.05,10.6,22.22c3.42,4.66,5.36,10.21,8.87,14.8
		c-1.79-7.05-4.99-13.66-7.37-20.52c-3.06-7.23-4.6-14.96-7.6-22.221c-0.72-3.81-2.23-7.43-2.78-11.26
		c0.42,0.09,1.27,0.29,1.69,0.39c7.96,13.471,15.18,27.37,22.96,40.94c0.59,1.05,1.29,2.05,2.29,2.77
		c-4.53-10.04-9.8-19.72-14.35-29.739c-2.72-8.03-7.75-15.13-9.59-23.49c3.01,3.16,4.99,7.13,7.64,10.57
		c6.26,7.21,11.22,15.42,16.76,23.18c2.1,2.82,3.77,6.05,6.53,8.32c-7.35-12.511-15.45-24.57-23.05-36.931
		c-1.67-2.899-3.87-5.54-4.92-8.739c7.6,6.119,12.28,14.96,18.83,22.1c0.11-0.78,0.35-2.34,0.47-3.12
		c8.12,9.11,15.47,18.92,23.78,27.87c-0.37-2.311-1.96-4.12-3.1-6.08c-2.58-3.77-4.21-8.13-7.27-11.58
		c-8.1-10.84-17.09-21.05-24.72-32.22c3.52,3.06,6.4,6.75,9.83,9.899c7.04,5.94,12.96,13.07,19.71,19.32
		c2.25,1.45,4.49,3.07,7.05,3.93c-2.83-4.979-7.19-8.88-10.3-13.67c-4.91-7.529-12.42-13.069-17.26-20.58
		c5.32,4.24,9.95,9.33,15.44,13.341c3.79,1.109,7.32,2.75,10.68,4.819c-0.19-0.39-0.57-1.18-0.76-1.569
		c-6.53-6.811-13.9-12.78-20.22-19.801c10.42,7.25,19.58,16.261,30.08,23.37c-1.34-2.14-3.45-3.59-5.26-5.3
		c-8.25-7.39-16.89-14.36-24.91-22c6.68,3.6,12.23,8.99,18.73,12.91c-0.38-1.18-0.76-2.37-1.14-3.55
		c5.36,2.79,10.17,6.529,15.44,9.489c-0.3-0.85-0.8-1.54-1.5-2.069c-8.46-6.63-17.15-12.971-25.56-19.65
		c1.45,0.29,2.73,1.061,3.96,1.851c7.14,4.579,14.25,9.22,21.41,13.77c1.45,0.89,2.87,1.95,4.61,2.16
		c-8.26-6.74-17.55-12.17-25.4-19.41c-2.55-2.02-5.31-3.78-7.66-6.04c15.24,7.97,29.55,17.68,44.919,25.4
		c-11.319-8.101-23.57-14.86-35.3-22.37c-3.18-2.15-6.77-3.771-9.59-6.41c6.2,2.29,11.62,6.31,17.84,8.54
		c-0.97-2.07-3.27-2.88-4.79-4.46c4.17,0.64,7.66,3.34,11.79,4.17c-0.44-2.48-4.78-2.37-4.49-4.98c2.62,1.061,5.24,2.141,8.02,2.73
		c-4.56-4.59-11.9-5.51-16.51-10.06c4.4,1.33,8.63,3.19,13,4.64c-0.04-0.16-0.11-0.48-0.14-0.64c-4.58-3.311-10.47-4.511-14.98-7.96
		c2.97,0.33,5.76,1.46,8.56,2.41c0.33-0.57,0.37-1.23-0.04-1.78c-2.29-0.25-4.89-1.28-6.29-3.18c8.02,2.48,16.01,5.1,24.08,7.43
		c10.51,1.82,20.53,5.67,30.971,7.77c-0.69-0.46-1.421-0.86-2.171-1.2c-18.89-7.19-38.66-12.36-56.87-21.17
		c6.03,1.02,12.13,1.02,18.22,1.53c12.26,2.31,24.45,4.95,36.68,7.45c1.76,0.35,3.561,0.5,5.36,0.45
		c-8.021-2.8-16.37-4.59-24.45-7.22c2.37-1.49,5.31,0.24,7.91-0.53c-7-3.76-15.84-2.97-22.59-7.36c0.16-0.23,0.49-0.7,0.66-0.94
		c9.68,0.88,19.32,2.16,29.02,2.88c-0.05-0.19-0.15-0.58-0.19-0.78c-7.6-1.54-15.279-2.7-22.859-4.32
		c6.77-1.09,13.64,0.56,20.47,0.23c-1.51-1.06-3.42-1.04-5.17-1.29c-10.62-1.31-21.24-2.6-31.87-3.89
		c-1.51-0.15-2.97-0.55-4.34-1.18c4.74-0.11,9.5,0.25,14.21-0.52c10.95,0.11,21.9,0.57,32.85,0.7c-0.06-0.22-0.17-0.65-0.22-0.87
		c-3.28-0.97-6.899-0.67-9.99-2.25c5.761-1.24,12.011-0.05,17.551-1.91c-6.761-1.07-13.631-1.12-20.41-2.05
		c-0.57-0.85-1.15-1.68-1.74-2.5c-9.35-0.43-18.71-0.15-28.06-0.56c2.52-1.07,5.31-0.87,7.98-1.15c7.51-0.64,15.05-0.97,22.54-1.91
		c4.48-1.3,9.11-1.91,13.68-2.81c-2.859-1.22-6-0.35-8.979-0.31c-10.74,0.4-21.45,1.13-32.18,1.66c-3.27,0.1-6.69,0.92-9.87-0.21
		c6.66-0.4,13.23-1.77,19.84-2.63c9.81-2.68,20.04-3.31,29.91-5.71c-5.83-1.11-11.92-1.65-17.891-1.26
		c-8.779-1.01-17.39,2.07-26.18,1.69c16.11-3.73,32.38-6.79,48.52-10.39c0.96-0.26,1.9-0.61,2.801-1.04
		c-3.69-0.2-7.351,0.42-11.03,0.52c-7.74-0.3-15.271,1.83-22.91,2.71c0.07-0.17,0.21-0.51,0.29-0.69c6.22-2.57,13.32-3.27,19.1-6.68
		c-7.05-1.84-13.859,1.24-20.85,1.66c4.85-2.77,10.43-4.1,15.63-6.16l0.64-1.41c-2.149,0.26-4.3,0.53-6.47,0.59
		c2.681-2.7,6.96-2.97,9.57-5.75c-13.82,3.77-27.27,8.83-40.96,13.06c-1.02,0.17-2.13,0.9-3.14,0.36
		c13.1-5.49,26.45-10.4,39.43-16.16c2.8-2.16,6.31-3.52,8.58-6.28c-12.25,3.95-24.05,9.27-36.35,13.05
		c4.38-5.14,10.959-7.25,16.23-11.18c2.72-2.72,6.59-3.98,9.109-6.9c-7.649,2.3-14.569,6.61-22.209,8.95
		c6.05-4.54,13.09-7.67,19.5-11.69c2.601-1.82,5.99-2.77,7.9-5.39c-1.96,0-4.07-0.53-5.85,0.52
		c-13.261,6.61-26.041,14.18-39.41,20.56c6.43-5.41,14.34-8.84,20.61-14.48c6.15-4.61,12.63-8.76,18.87-13.25
		c0.7-0.5,1.24-1.15,1.61-1.95c-8.97,4.83-17.62,10.26-26.61,15.06c-4.63,1.72-8.71,4.56-13.22,6.51
		c8.19-7.02,17.29-12.93,25.7-19.71c-4.54,0.66-7.79,4.53-12.08,5.95c6.63-7.04,15.05-12.27,22.01-19.04
		c-6.8,2.95-12.43,8.06-18.89,11.65c2-3.85,6.45-5.81,8.25-9.76c-4.37,2.23-8.11,5.51-12.49,7.73
		c-7.44,4.47-13.45,11.08-20.89,15.49c7.48-8.28,16.35-15.25,23.96-23.43c2.84-4.229,6.83-7.59,9.53-11.91
		c-0.39,0.22-1.159,0.67-1.55,0.89C213,50.62,199.99,63.4,186.14,75.16c6.96-8.91,15.78-16.3,23.11-24.94
		c-5.47,2.71-9.17,8.24-14.29,11.64c1.07-2.7,3.36-4.63,4.92-7.02c5.76-9.41,14.21-16.89,20.24-26.04
		c-9.74,7.59-16.49,18.67-27.19,25.13c0.32-0.939,0.78-1.79,1.37-2.58c6.43-8.49,12.94-16.9,19.39-25.37
		c0.92-1.25,1.91-2.49,2.4-3.99c-7.6,7.78-14.18,16.53-21.38,24.69c-2.57,2.86-4.73,6.16-7.83,8.48c2.04-3.9,4.95-7.27,7.31-10.97
		c1.34-2.28,3.5-4.23,3.83-6.96c-1.4,1.06-2.7,2.3-4.35,2.97c1.19-3.31,1.8-6.86,3.64-9.91c1.35-2.78,3.31-5.33,3.92-8.41
		c-2.38,1.74-4.06,4.22-6.26,6.16c-2.67,1.95-5.95,3.3-7.62,6.34c-3.31,4.14-5.56,9.25-9.53,12.78c3.57-8.33,9.03-15.79,12.19-24.28
		c-1.43,1.28-2.31,3.01-3.35,4.6c-4.43,7.19-8.93,14.34-13.38,21.52c-0.96-6.39,3.79-11.58,5.09-17.56
		c-2.34,1.17-4.33,3.14-5.53,5.47c-3.27,6.01-6.37,12.11-9.63,18.12c0.08-0.84,0.23-1.66,0.46-2.47c5.03-12.67,10.98-25,15.65-37.8
		c-2.76,1.82-3.55,5.42-6.06,7.56c-4.18,4.02-7.09,9.02-10.02,13.96c-3.69,7.3-5.49,15.72-11.06,21.93
		c-1.16-2.89,0.88-6.14-0.63-8.8c-1.85-1.06-1.83,2.05-3.32,2.51c3.64-16.28,7.55-32.51,11.21-48.79c-0.16,0.07-0.47,0.21-0.63,0.28
		c-4.9,16.06-8.54,32.49-13.11,48.65c-0.25,1.04-0.7,2.01-1.27,2.91c0.75-5.62,2.18-11.16,2.32-16.85
		C148.52,25.37,151.11,12.74,152.98,0L152.98,0z"/>
	<path fill="#99646A" d="M208.17,0h1.75c-0.51,1.15-1.16,2.35-2.33,2.94C205.94,2.78,207.68,0.65,208.17,0L208.17,0z"/>
	<path fill="#FF120C" d="M222.32,0h2.11c-1.77,2.21-3.47,4.47-5.19,6.72C220.01,4.37,221.34,2.26,222.32,0L222.32,0z"/>
	<path fill="#FF120C" d="M226.97,0h6.459c-3.71,4.31-7.8,8.23-12.189,11.82C223.62,8.11,225.14,4,226.97,0L226.97,0z"/>
	<path fill="#FF120C" d="M234.07,0h4c-2.931,3.41-5.87,6.81-8.86,10.17c-1.42,1.5-2.49,3.57-4.71,3.98
		C226.92,8.98,231.42,5.06,234.07,0L234.07,0z"/>
	<path fill="#FF1706" d="M240.54,0h2.94c-3.141,3.31-6.061,6.87-9.45,9.91l-0.98-0.29C235.15,6.14,238.01,3.17,240.54,0L240.54,0z"
		/>
	<path fill="#FF1A06" d="M246.63,0h4.95c-4.97,4.96-9.97,9.91-15.75,13.93C239,8.98,243.41,4.93,246.63,0L246.63,0z"/>
	<path fill="#FF1706" d="M255.35,0h2.17c-5.439,5.29-10.8,10.67-16.489,15.69C245.58,10.26,250.57,5.22,255.35,0L255.35,0z"/>
	<path fill="#FF1706" d="M260.89,0h7.48c-8.33,7.44-16.49,15.07-24.88,22.44c-1.49,1.29-3.36,2.03-5.09,2.94
		c0.609-1.36,1.09-2.83,2.17-3.91C247.29,14.26,254.12,7.16,260.89,0L260.89,0z"/>
	<path fill="#FF1605" d="M269.85,0h12.271c-9.09,7.88-18.45,15.45-27.64,23.21c-1.53,1.53-3.971,2.09-4.841,4.22
		c-0.13-0.54-0.43-1.3,0.271-1.58c2.89-1.67,5.03-4.27,7.49-6.47c3.25-3.15,6.77-6.04,9.79-9.42c-3.12,0.89-5.19,3.72-7.971,5.29
		c-4.29,2.35-7.779,5.83-11.739,8.64c-0.15-1.77,1.109-3.03,2.239-4.16C256.37,13.09,263.1,6.54,269.85,0L269.85,0z"/>
	<path fill="#FF1405" d="M284.02,0h4.62C277.78,6.7,268.69,15.97,258.1,23.1C266.54,15.19,275.36,7.68,284.02,0L284.02,0z"/>
	<path fill="#FF1004" d="M291.26,0h18.42c9.46,5.23,19.75,8.86,29.5,13.54c-4.319,3.89-8.319,8.11-12.46,12.18
		c-1.71,1.83-3.859,3.54-4.43,6.1c1.26,0.8,2.66,1.32,4.06,1.83c0.15,0.59,0.46,1.76,0.61,2.35c-0.729,0.14-2.2,0.41-2.94,0.55
		c-3.38,0.84-6.35,2.81-9.529,4.18c-14.88,6.94-29.51,14.42-44.51,21.1C279,56.4,288.5,51.78,297.63,46.54
		c5.38-3.82,11.24-6.86,16.851-10.3c0.739-0.4,1.289-0.98,1.659-1.74c-10.59,4.88-20.83,10.51-31.63,14.92
		c-8.12,4.09-16.31,8.05-24.33,12.33c1.771-1.43,3.74-2.59,5.73-3.71c13.99-8.16,28.21-15.92,42.12-24.2
		c1.84-1.71,3.87-3.24,5.45-5.2c-3.711,0.95-6.98,3.07-10.58,4.33c2.529-3.06,6.81-4.22,9.069-7.49
		c-12.479,6.45-24.45,13.87-36.93,20.3c8.75-6.28,18.15-11.61,27.15-17.54c1.699-1.21,3.689-2.09,4.989-3.771
		c-9.859,5.07-19.239,11.03-29.02,16.25c5.42-5.15,11.47-9.6,17.42-14.13c4.1-4.32,9.88-6.81,13.689-11.33
		c-7.579,3.9-14.569,8.9-22.279,12.56c-6.471,3.45-12.311,8.11-19.021,11.1c12.601-9.06,25.42-17.84,37.92-27.05
		c1.7-1.9,3.63-3.67,4.94-5.88c-9.04,5.04-17.311,11.38-26.39,16.37c-11,6.91-21.32,14.88-32.421,21.61
		c7.471-6.26,15.511-11.8,23.091-17.93c-4.931,1.45-8.48,5.66-13.11,7.76c2.51-3.91,7.52-5.56,9.91-9.51
		c-7.82,4.97-14.98,10.91-22.811,15.85c1.641-2.03,3.2-4.16,5.28-5.76c11.09-9.48,22.8-18.24,33.68-27.97
		c-8.13,4.69-15.02,11.37-22.93,16.33C273.48,14.77,282.65,7.69,291.26,0L291.26,0z"/>
	<path fill="#FF100F" d="M309.68,0h51.99c6.43,3.57,13.42,6.06,20.05,9.27C405.88,19.79,429.86,30.74,454,41.3v22.9
		c-23.55-10.03-46.83-20.71-70.27-30.99c-14.86-6.55-29.74-13.03-44.551-19.67C329.43,8.86,319.14,5.23,309.68,0L309.68,0z"/>
	<path fill="#FF0000" d="M361.67,0H454v41.3c-24.14-10.56-48.12-21.51-72.28-32.03C375.09,6.06,368.1,3.57,361.67,0L361.67,0z"/>
	<path fill="#FF5515" d="M0,5.82c2.61,2.82,4.71,6.06,7.09,9.08C4.52,13.04,2.26,10.78,0,8.56V5.82L0,5.82z"/>
	<path fill="#FF5515" d="M0,11.65c3.36,4.29,7.19,8.17,10.71,12.32C6.84,21.44,3.59,18.08,0,15.18V11.65L0,11.65z"/>
	<path fill="#FF0702" d="M326.72,25.72c4.141-4.07,8.141-8.29,12.46-12.18c14.811,6.64,29.69,13.12,44.551,19.67
		C407.17,43.49,430.45,54.17,454,64.2v20.79c-38.56-14.88-77.21-29.58-115.87-44.21c-3.729-1.57-7.689-2.66-11.17-4.78
		c-0.15-0.59-0.46-1.76-0.61-2.35c-1.399-0.51-2.8-1.03-4.06-1.83C322.86,29.26,325.01,27.55,326.72,25.72L326.72,25.72z"/>
	<path fill="#FF0D0B" d="M324.02,36.55c0.74-0.14,2.211-0.41,2.94-0.55c3.48,2.12,7.44,3.21,11.17,4.78
		C376.79,55.41,415.44,70.11,454,84.99v22.13c-5.01-1.51-9.9-3.33-14.69-5.43c-20.6-7.59-41.04-15.59-61.6-23.3
		c-7.79-2.79-15.35-6.25-23.28-8.6c-0.02-0.55-0.08-1.65-0.109-2.19c-12.011-2.72-24.04-5.33-36.07-7.9
		c5.28-2.44,11.07-4.01,15.98-7.13c-6.051,1.99-12.101,4.01-18.011,6.4c-1.13-0.12-2.26-0.23-3.38-0.4
		c6.34-2.47,12.601-5.22,18.67-8.28c0.15-0.19,0.45-0.58,0.601-0.77c-7.87,2.76-15.98,4.72-23.761,7.69
		c-4.869-0.56-8.68,3.4-13.159,4.72c-5.29,1.15-10.051,4.06-15.4,4.96c9.91-4.83,20.01-9.28,29.81-14.33
		c4.15-3.17,9.471-4.69,13.301-8.21c-3.4,0.75-6.61,2.15-10.021,2.87c-8.83,3.12-17.11,7.69-25.979,10.69
		C299.23,50.74,312.73,45.45,324.02,36.55L324.02,36.55z"/>
	<path fill="#41AABA" d="M308.35,57.21c7.78-2.97,15.891-4.93,23.761-7.69c-0.15,0.19-0.45,0.58-0.601,0.77
		c-6.069,3.06-12.33,5.81-18.67,8.28C311.32,58.2,309.83,57.71,308.35,57.21L308.35,57.21z"/>
	<path fill="#41AABA" d="M316.22,58.97c5.91-2.39,11.96-4.41,18.011-6.4c-4.91,3.12-10.7,4.69-15.98,7.13
		C317.74,59.51,316.73,59.15,316.22,58.97L316.22,58.97z"/>
	<path fill="#005D9D" d="M295.19,61.93c4.479-1.32,8.29-5.28,13.159-4.72c1.48,0.5,2.971,0.99,4.49,1.36
		c1.12,0.17,2.25,0.28,3.38,0.4c0.511,0.18,1.521,0.54,2.03,0.73c12.03,2.57,24.06,5.18,36.07,7.9c0.029,0.54,0.09,1.64,0.109,2.19
		c0.25,6.7,0.811,13.39,1.04,20.1c0.34,6.28,0.67,12.57,0.45,18.86c-1.18,1.25-2.35,2.51-3.53,3.75
		c-4.439,4.54-8.72,9.24-13.13,13.8c-0.14,3.42-0.529,6.83-0.439,10.25c-0.03,1.04-0.08,3.11-0.11,4.15s-0.06,2.07-0.1,3.11
		c-0.181,3.69-0.03,7.39-0.311,11.07c-0.109,2.01-0.319,4.02-0.41,6.03c-2.699-0.01-5.399-0.2-8.1-0.3
		c-6.84-0.35-13.7-0.21-20.521-0.9c0.261-5.17,0.45-10.35,0.841-15.52c0.02-0.47,0.069-1.4,0.1-1.86c0.11-2.43,0.22-4.86,0.34-7.29
		c0.021-0.39,0.061-1.16,0.08-1.54c0.11-2.31,0.17-4.62,0.37-6.92c0.37-2.62,0-5.33,0.57-7.9c2.46-2.23,5.04-4.32,7.52-6.53
		c1.19-1.07,2.311-2.21,3.46-3.32c3.32-2.29,6.101-5.24,9.28-7.71c0.86-0.75,1.66-1.56,2.41-2.42l0.26-0.34
		c-0.03-1.05-0.06-2.1-0.15-3.15c-0.06-0.65-0.159-1.96-0.22-2.61c-0.08-0.65-0.24-1.94-0.32-2.59l-0.67-0.28
		c-3.409-0.33-6.84-0.43-10.25-0.56c-0.12,1.37-0.22,2.74-0.29,4.12c-0.02,0.31-0.069,0.94-0.1,1.25c-0.05,0.83-0.16,2.49-0.22,3.31
		c-0.03,0.5-0.09,1.5-0.12,1.99c-0.05,0.85-0.16,2.54-0.21,3.38c-0.04,0.521-0.11,1.55-0.141,2.06c-6.96-0.6-13.93-1.08-20.899-1.58
		c-2.851-0.23-5.771-0.06-8.51-0.98c-0.87-2.69-1.67-5.4-2.561-8.08c-0.63-1.22-1.27-2.45-1.31-3.84c-0.41-1.71-1.03-3.35-1.57-5
		l-0.24-0.78c-0.68-2.23-1.439-4.43-2.18-6.63c-0.07-0.26-0.23-0.77-0.31-1.02c-0.87-2.75-1.931-5.45-2.32-8.32
		C286.11,66.25,291.14,64.94,295.19,61.93L295.19,61.93z"/>
	<path fill="#FFB000" d="M285.73,70.9c6.71-3.46,13.55-6.69,20.229-10.22c15.03,3.02,29.99,6.42,44.97,9.7
		c0.721,12.18,1.471,24.4,1.87,36.61c-5.7,5.92-11.37,11.89-16.939,17.93c-0.62,10.81-0.601,21.7-1.15,32.54
		c-7.18-0.28-14.34-0.79-21.52-0.87c-0.15-11.87,1.26-23.92,1.489-35.87c7.7-7.01,15.71-13.7,23.521-20.6
		c-0.41-4.44-0.78-8.89-1.17-13.34c-5.771-0.79-11.641-0.98-17.45-1.41c-0.16,5.41-0.76,10.79-1,16.2
		c-7.811-0.63-15.62-1.08-23.41-1.87C291.89,90.14,289.03,80.44,285.73,70.9L285.73,70.9z"/>
	<path fill="#FF0B03" d="M354.43,69.79c7.931,2.35,15.49,5.81,23.28,8.6c20.56,7.71,41,15.71,61.6,23.3
		c4.79,2.1,9.681,3.92,14.69,5.43v20.15c-32.81-12.54-65.78-24.71-98.53-37.38C355.24,83.18,354.68,76.49,354.43,69.79L354.43,69.79
		z"/>
	<path fill="#41AABA" d="M0,76.01c13.58,7,27.8,12.77,41.31,19.88c-6.76-1.15-12.87-4.72-19.55-6.28c0.64,0.83,1.93,2.49,2.57,3.32
		c-6.84-1.27-13.31-4.1-20.12-5.56c1.12,1.12,2.65,1.66,4.07,2.29c8.3,3.44,16.73,6.56,24.98,10.11
		c-7.03-0.07-13.42-4.31-20.42-4.33c5.52,2.97,11.97,4.01,17.27,7.33c-9.49-1.66-18.67-4.84-28.17-6.47
		c3.76,3.09,9.31,3.11,12.95,6.21c-4.99-0.74-9.94-1.73-14.89-2.7V76.01L0,76.01z"/>
	<path fill="#FF2118" d="M273.07,81.71c3.77-1.3,7.56-2.62,11.16-4.34c0.079,0.25,0.239,0.76,0.31,1.02
		C280.72,79.5,277.02,81.1,273.07,81.71L273.07,81.71z"/>
	<path fill="#7F747E" d="M286.96,85.8c-1.92,1.64-2.66-1.79-0.24-0.78L286.96,85.8L286.96,85.8z"/>
	<path fill="#41AABA" d="M322.89,89.17c3.41,0.13,6.841,0.23,10.25,0.56c-3.739,0.46-6.819,2.94-10.54,3.56
		C322.67,91.91,322.77,90.54,322.89,89.17L322.89,89.17z"/>
	<path fill="#FF2118" d="M322.6,93.29c3.721-0.62,6.801-3.1,10.54-3.56l0.67,0.28c0.08,0.65,0.24,1.94,0.32,2.59
		c-3.86,0.74-7.78,1.13-11.63,1.94C322.53,94.23,322.58,93.6,322.6,93.29L322.6,93.29z"/>
	<path fill="#FF1B16" d="M355.47,89.89c32.75,12.67,65.721,24.84,98.53,37.38v23.92c-32.99-12.38-66.02-24.68-98.96-37.17
		c-0.66-0.38-1.99-1.14-2.65-1.52c1.181-1.24,2.351-2.5,3.53-3.75C356.14,102.46,355.81,96.17,355.47,89.89L355.47,89.89z"/>
	<path fill="#FF2509" d="M279.86,93.76c2.699-1.44,5.88-1.69,8.67-2.96c0.04,1.39,0.68,2.62,1.31,3.84
		c-4.59,0.94-9.189,1.82-13.75,2.85c4.03-1.46,8.22-3.08,12.521-3.2c-0.53-0.7-1.13-1.34-1.801-1.9
		C284.58,93.22,282.22,93.63,279.86,93.76L279.86,93.76z"/>
	<path fill="#41AABA" d="M322.5,94.54c3.85-0.81,7.77-1.2,11.63-1.94c0.061,0.65,0.16,1.96,0.22,2.61
		c-4.01,0.94-8.06,1.7-12.069,2.64C322.34,97.03,322.45,95.37,322.5,94.54L322.5,94.54z"/>
	<path fill="#FF2118" d="M322.28,97.85c4.01-0.94,8.06-1.7,12.069-2.64c0.091,1.05,0.12,2.1,0.15,3.15l-0.26,0.34
		c-4.07-0.32-8.061,0.67-12.08,1.14C322.19,99.35,322.25,98.35,322.28,97.85L322.28,97.85z"/>
	<path fill="#41AABA" d="M322.16,99.84c4.02-0.47,8.01-1.46,12.08-1.14c-0.75,0.86-1.55,1.67-2.41,2.42
		c-3.23,0.98-6.59,1.38-9.88,2.1C322,102.38,322.11,100.69,322.16,99.84L322.16,99.84z"/>
	<path fill="#FF1E07" d="M321.95,103.22c3.29-0.72,6.649-1.12,9.88-2.1c-3.18,2.47-5.96,5.42-9.28,7.71
		c-7.53,0.2-15.05,0.66-22.59,0.72c7.24-1.45,14.5-2.78,21.8-3.9l0.05-0.37C321.84,104.77,321.91,103.74,321.95,103.22
		L321.95,103.22z"/>
	<path fill="#40AABA" d="M0,101.8l0.78-0.39c13.19,3.77,26.53,7.08,39.24,12.28c-8.45-0.64-16.74-2.68-25.12-3.88
		c-4.94-0.57-10-2.5-14.9-0.73V101.8L0,101.8z"/>
	<path fill="#FF2509" d="M285.85,116.69c11-1.92,22.19-2.8,33.24-4.54c-2.479,2.21-5.06,4.3-7.52,6.53c-0.57,2.57-0.2,5.28-0.57,7.9
		c-6.24-0.21-12.59,0.64-18.74-0.67c0.51-0.61,1.51-1.84,2.021-2.45c-5.17,0.16-10.34,0.15-15.511,0.14
		c9.5-1.8,19.24-1.87,28.82-3.22c0.07-0.19,0.22-0.55,0.3-0.74c-2.029-0.06-4.069-0.08-6.08-0.15c1.91-2.62,6.19-1.79,8.301-4.18
		C302.02,115.75,293.96,116.72,285.85,116.69L285.85,116.69z"/>
	<path fill="#41AABA" d="M0,112.88c7.53,1.45,15.16,2.81,22.18,6.03c4.44,2.21,9.5,2.24,14.2,3.56c2.28,0.79,4.58,1.49,6.88,2.23
		c-14.43,0.37-28.83-1.45-43.26-1.57V112.88L0,112.88z"/>
	<path fill="#FF1405" d="M339.26,126.3c4.41-4.56,8.69-9.26,13.13-13.8c0.66,0.38,1.99,1.14,2.65,1.52
		c32.94,12.49,65.97,24.79,98.96,37.17v25.99c-14.55-4.819-29.49-8.31-44.11-12.91c-23.79-6.73-47.52-13.63-71.279-20.46
		c0.04-1.04,0.069-2.07,0.1-3.11c3.33-0.44,6.74-0.37,10.01-1.26c0.46-0.57,0.851-1.2,1.15-1.89c-3.68-0.39-7.351-0.86-11.05-1
		C338.73,133.13,339.12,129.72,339.26,126.3L339.26,126.3z"/>
	<path fill="#3DA8B9" d="M0,127.02l0.82-0.61c8.6,0.62,17.2,1.29,25.8,2.03l0.39,0.7c-9,0.29-18.01,0.06-27.01,0.28V127.02L0,127.02
		z"/>
	<path fill="#FF2A15" d="M294.98,134.51c5.09-1.41,10.449-0.44,15.649-1.01c-0.02,0.38-0.06,1.15-0.08,1.54
		C305.36,134.96,300.18,134.27,294.98,134.51L294.98,134.51z"/>
	<path fill="#41AABA" d="M0,133.92c4.63-0.81,9.38,0.49,13.65,2.26c1.07,1.31,0.7,2.91-0.2,4.19c-1.71,0.83-3.77,1.04-5.14,2.49
		c13.01-0.34,25.95,1.36,38.94,0.64c-9.73,2.59-19.88,3.48-29.69,5.85c2.35,1.02,4.97,0.27,7.44,0.43
		c8.08,0.58,15.91-2.27,23.96-2.26c-13.26,3.49-26.74,6.1-40.07,9.32c-2.05,0.54-4.27,0.73-6.08,1.95
		c9.56-0.87,18.86-3.58,28.41-4.51C21.09,158.08,10.3,160,0,163.36V133.92L0,133.92z"/>
	<path fill="#41AABA" d="M338.82,136.55c3.699,0.14,7.37,0.61,11.05,1c-0.3,0.69-0.69,1.32-1.15,1.89
		c-3.27,0.89-6.68,0.82-10.01,1.26C338.74,139.66,338.79,137.59,338.82,136.55L338.82,136.55z"/>
	<path fill="#FF2A15" d="M298.74,142.44c3.819-0.12,7.64-0.39,11.47-0.11c-0.03,0.46-0.08,1.39-0.1,1.86
		C306.37,143.26,302.44,143.51,298.74,142.44L298.74,142.44z"/>
	<path fill="#FF2015" d="M338.61,143.81c23.76,6.83,47.489,13.73,71.279,20.46c14.62,4.6,29.561,8.09,44.11,12.91v20.051
		c-5.45-0.91-10.66-2.841-15.99-4.23c-9.93-2.9-20.05-5.18-29.87-8.44c-12.43-3.42-24.79-7.13-37.25-10.46
		c-4.319-1.33-8.79-2.119-12.989-3.8c-4.381-1.64-9.62-1.5-13.2-4.84c0.87,0.02,2.609,0.05,3.479,0.07
		c-2.16-1.36-4.87-1.25-7.25-2.03c-3.83-0.58-7.25-2.62-11.14-2.89c2.7,0.1,5.4,0.29,8.1,0.3l0.54-0.21
		c0.061-1.22,0.11-2.43,0.15-3.65c2.3-0.02,4.62-0.01,6.93-0.05c-0.99-2.45-4.97-1.68-7.21-2.12
		C338.58,151.2,338.43,147.5,338.61,143.81L338.61,143.81z"/>
	<path fill="#41AABA" d="M37.45,155.71c2.53-0.57,5.05-1.31,7.67-1.32c-3.28,1.5-6.79,2.4-10.15,3.68
		c-11.3,5.06-23.35,8.14-34.97,12.35v-6.36c1.54,0.15,3.04-0.36,4.54-0.66C15.5,160.81,26.48,158.28,37.45,155.71L37.45,155.71z"/>
	<path fill="#B05455" d="M337.89,160.91c0.091-2.01,0.301-4.02,0.41-6.03c2.24,0.44,6.22-0.33,7.21,2.12
		c-2.31,0.04-4.63,0.03-6.93,0.05c-0.04,1.22-0.09,2.43-0.15,3.65L337.89,160.91L337.89,160.91z"/>
	<path fill="#FF2108" d="M285.78,159.43c19.77,0.22,39.29,3.91,58.92,6.03c3.58,3.34,8.819,3.2,13.2,4.84
		c4.199,1.681,8.67,2.47,12.989,3.8c12.46,3.33,24.82,7.04,37.25,10.46c-0.8,0.721-1.55,1.5-2.239,2.33c2.93,2.091,4.3,5.58,7.3,7.5
		c-0.04,1.71,0.34,3.49,2.149,4.11c0.391-0.3,1.17-0.92,1.561-1.22c1.64,1.01,1.67,2.76,1.52,4.479c0.78,1.101,1.99,1.811,3,2.71
		c-0.04,0.351-0.12,1.061-0.16,1.42c-19.46-4.859-38.8-10.189-58.279-14.97c-6.23-1.42-12.23-3.86-18.61-4.61
		c-2.14-5.43-4.38-10.819-6.46-16.279c-9.92,0.12-19.77,1.439-29.67,1.899c0.06,0.5,0.17,1.49,0.23,1.98
		c-10.5-2.36-20.98-4.82-31.44-7.33c7.52,0.4,14.78,2.86,22.31,3.2c-3.71-2.04-8.21-2.25-12.21-3.62c0.471-0.28,1.4-0.85,1.87-1.13
		c-0.51-0.47-1.51-1.39-2.02-1.86c7.35,1.26,14.75,2.11,22.109,3.23c4.71,0.59,9.591,0.9,14.25-0.03
		C310.82,164.1,298.26,161.92,285.78,159.43L285.78,159.43z"/>
	<path fill="#40A9BA" d="M0,171.82c12.62-3.72,25.21-7.69,38.04-10.62C25.52,166.39,12.59,170.52,0,175.54V171.82L0,171.82z"/>
	<path fill="#005D9D" d="M308.25,171.93c9.9-0.46,19.75-1.779,29.67-1.899c2.08,5.46,4.32,10.85,6.46,16.279
		c0.9,2.271,1.86,4.511,2.66,6.82c-4.72,0.99-9.4,2.11-14.12,3.101c-2.18,0.359-4.33,0.909-6.42,1.64
		c-0.79,0.13-2.38,0.39-3.18,0.52c-2.44,0.5-4.88,1.03-7.351,1.37c-0.16-0.47-0.489-1.399-0.66-1.87
		c-0.71-3.55-1.8-7.01-2.829-10.47c-0.4-1.31-0.811-2.59-1.181-3.89c-0.189-0.66-0.55-2-0.729-2.66
		c-0.261-0.83-0.551-1.63-0.851-2.43c-0.42-1.511-0.84-3.021-1.239-4.53C308.42,173.42,308.31,172.43,308.25,171.93L308.25,171.93z"
		/>
	<path fill="#FF3719" d="M281.02,172.35c9.62,1.73,19.131,4.08,28.7,6.091c0.3,0.8,0.59,1.6,0.851,2.43
		C300.78,177.82,290.74,175.59,281.02,172.35L281.02,172.35z"/>
	<path fill="#F6B501" d="M317,174.76c6.12-0.33,12.23-0.96,18.35-1.39c2.58,5.53,4.391,11.41,7.051,16.91
		c-7.71,2.47-15.9,3.609-23.79,5.609c-2.221-6.68-3.721-13.609-6.15-20.21C313.63,174.58,315.51,174.97,317,174.76L317,174.76z"/>
	<path fill="#FF3719" d="M289.06,178.33c7.431,1.62,14.83,3.45,22.24,5.2c0.37,1.3,0.78,2.58,1.181,3.89
		c-6.45-2.12-12.921-4.16-19.381-6.24C291.67,180.38,288.88,180.71,289.06,178.33L289.06,178.33z"/>
	<path fill="#FF1605" d="M405.9,186.89c0.689-0.83,1.439-1.609,2.239-2.33c9.82,3.261,19.94,5.54,29.87,8.44
		c5.33,1.39,10.54,3.32,15.99,4.23v17.1c-10.88-2.92-21.79-5.74-32.73-8.44c0.04-0.359,0.12-1.069,0.16-1.42
		c-1.01-0.899-2.22-1.609-3-2.71c0.15-1.72,0.12-3.47-1.52-4.479c-0.391,0.3-1.17,0.92-1.561,1.22c-1.81-0.62-2.189-2.4-2.149-4.11
		C410.2,192.47,408.83,188.98,405.9,186.89L405.9,186.89z"/>
	<path fill="#FF2A15" d="M344.38,186.31c6.38,0.75,12.38,3.19,18.61,4.61c19.479,4.78,38.819,10.11,58.279,14.97
		c10.94,2.7,21.851,5.521,32.73,8.44v21.479c-13.9-3.97-28.15-6.67-42.02-10.8c-4.4-0.93-8.631-2.71-13.16-2.96
		c-10-3.45-20.57-4.99-30.69-8.069c-3.96-1.271-8.04-2.11-12.07-3.141c-12.319-3.479-24.93-5.91-37.189-9.67
		c-1.54-0.64-2.99,0.26-3.43,1.78c-11.82-4.5-23.521-9.351-35.44-13.57c4.52,0.14,8.61,2.4,13.06,3.03
		c7.54,1.29,14.601,4.899,22.25,5.479c0.171,0.471,0.5,1.4,0.66,1.87c6.36-1.27,12.061,2.971,18.34,3.03
		c-3.5-1.84-7.319-2.95-10.989-4.4c0.8-0.13,2.39-0.39,3.18-0.52c4.8,1.51,9.69,2.729,14.59,3.88c-2.899-2.21-6.7-2.7-9.95-4.21
		l-0.189-0.8c0.49-0.13,1.479-0.391,1.97-0.51c4.72-0.99,9.4-2.11,14.12-3.101C346.24,190.82,345.28,188.58,344.38,186.31
		L344.38,186.31z"/>
	<path fill="#FF2F0C" d="M277.08,194.1c6.21,0.311,11.86,3.67,17.85,5.24c8.96,2.2,17.59,5.57,26.46,8.13
		c-0.77-2.8-3.55-3.63-5.949-4.52c0.439-1.521,1.89-2.42,3.43-1.78c12.26,3.76,24.87,6.19,37.189,9.67
		c-0.229,0.58-0.699,1.75-0.939,2.33c1.55,2.33,3.61,4.28,4.99,6.73c1.64,3.189,4.859,4.96,7.34,7.399
		c-0.181,0.54-0.53,1.61-0.7,2.15c-7.65-1.54-15.18-3.57-22.75-5.47c-3.96-1.101-8.2-1.271-11.92-3.131
		c-1.88-1.619-4.24-2.42-6.45-3.449c-14.58-6.431-29.229-12.681-43.76-19.221C280,197.25,277.99,196.06,277.08,194.1L277.08,194.1z"
		/>
	<path fill="#3EA9B9" d="M326.5,197.87c2.09-0.73,4.24-1.28,6.42-1.64c-0.49,0.119-1.479,0.38-1.97,0.51l0.189,0.8
		c3.25,1.51,7.051,2,9.95,4.21C336.19,200.6,331.3,199.38,326.5,197.87L326.5,197.87z"/>
	<path fill="#FF3719" d="M270.07,197.57c0.199-0.051,0.609-0.13,0.81-0.181c12.61,4.91,25.021,10.33,37.64,15.221
		c7.98,2.37,15.69,5.55,23.561,8.239c3.72,1.86,7.96,2.03,11.92,3.131c7.57,1.899,15.1,3.93,22.75,5.47
		c11.66,3.04,23.46,5.5,35.11,8.649c-0.101,0.841-0.2,1.69-0.28,2.54c1.14,1.03,2.36,1.971,3.66,2.82c0.49-0.29,0.99-0.59,1.5-0.89
		c0.09,1.1,0.17,2.199,0.26,3.31c1.87,1.91,4.22,3.48,5.3,6.021c1.22,3.229,4.36,5.159,5.771,8.319
		c0.239-0.739,0.489-1.489,0.729-2.229c1.021,1.68,2.45,3.02,4.17,3.979c-0.71,0.63-1.42,1.271-2.12,1.92
		c-13.949-3.409-27.97-6.55-41.939-9.859c-9.83-2.761-19.891-4.521-29.73-7.24c-8.029-1.24-15.689-4.36-23.819-4.97
		c0.13-0.54,0.46-0.92,1-1.15c-2.11-1.92-4.051-4.1-6.601-5.439c-11.75-6.641-23.68-12.961-35.42-19.61
		c-4.39-3.16-9.21-5.63-13.77-8.521c0.02-0.47,0.06-1.409,0.09-1.88c-2.17-1.3-4.351-2.56-6.51-3.859
		c1.399,0.279,2.75,0.739,4.06,1.34c9.81,4.33,19.43,9.229,29.87,11.91c-3.21-3.5-8.42-4.561-12.03-7.721
		C280.66,203.89,275.67,200.21,270.07,197.57L270.07,197.57z"/>
	<path fill="#41AABA" d="M315.97,199.76c2.471-0.34,4.91-0.87,7.351-1.37c3.67,1.45,7.489,2.561,10.989,4.4
		C328.03,202.73,322.33,198.49,315.97,199.76L315.97,199.76z"/>
	<path fill="#FF3D0F" d="M264.98,211.1c19.479,8.53,38.279,18.57,57.239,28.23c-2.18,0.71-4.859,0.5-6.47,2.37
		c-2.98,3.01-5.95,6.01-8.87,9.06c-1.6-0.27-3.2-0.49-4.78-0.84c-0.13-0.22-0.399-0.65-0.529-0.87c-0.051-0.38-0.141-1.16-0.19-1.55
		c-5.34-4.25-11.57-7.51-16.39-12.35c0.47-0.03,1.41-0.091,1.88-0.12c5.189,2.279,9.91,5.51,15.06,7.88
		c-2.22-2.76-5.64-4.19-8.46-6.26c-6.13-4.2-12.67-7.86-18.47-12.511c9.44,4.391,18.8,8.891,27.89,13.98
		c2.5,1.64,5.48,2.11,8.391,2.47c-0.09-0.58-0.28-1.74-0.38-2.32C295.81,228.85,280.09,220.47,264.98,211.1L264.98,211.1z"/>
	<path fill="#FF2609" d="M356.06,210.84c4.03,1.03,8.11,1.87,12.07,3.141c10.12,3.079,20.69,4.619,30.69,8.069
		c1.399,1.101,2.989,1.891,4.63,2.59c0.66,2.21,1.8,4.33,4.09,5.17c0.05,0.61,0.1,1.23,0.15,1.851
		c0.859,0.24,1.739,0.479,2.609,0.74c0.34,2.189,1.22,4.47,3.82,4.42c0.42,1.77,1.41,3.29,2.74,4.51c-5.03-0.98-9.94-2.46-15-3.23
		c-11.65-3.149-23.45-5.609-35.11-8.649c0.17-0.54,0.52-1.61,0.7-2.15c-2.48-2.439-5.7-4.21-7.34-7.399
		c-1.38-2.45-3.44-4.4-4.99-6.73C355.36,212.59,355.83,211.42,356.06,210.84L356.06,210.84z"/>
	<path fill="#FF1D07" d="M398.82,222.05c4.529,0.25,8.76,2.03,13.16,2.96c13.869,4.13,28.119,6.83,42.02,10.8v14.381
		c-6.34-1.28-12.65-2.66-18.88-4.421c-6.05-1.659-12.28-2.55-18.26-4.439c-1.33-1.22-2.32-2.74-2.74-4.51
		c-2.601,0.05-3.48-2.23-3.82-4.42c-0.87-0.261-1.75-0.5-2.609-0.74c-0.051-0.62-0.101-1.24-0.15-1.851
		c-2.29-0.84-3.43-2.96-4.09-5.17C401.81,223.94,400.22,223.15,398.82,222.05L398.82,222.05z"/>
	<path fill="#FF4311" d="M251.15,224.2c7.029,3.06,12.569,8.899,19.6,11.88c-1.45-2.311-4.54-3-5.63-5.521
		c8.79,5.24,17.85,9.99,26.399,15.66c-5.96,2.05-11.88-2.97-18.01-1.92c-3.88-3.27-8.3-5.96-11.79-9.649
		c2.141,0.52,3.74,2.18,5.811,2.89C262.77,232.39,256.53,228.72,251.15,224.2L251.15,224.2z"/>
	<path fill="#88907E" d="M0,228.33c0.55-0.67,2.85-2.59,2.98-0.79c-0.6,1.19-1.86,1.77-2.98,2.37V228.33L0,228.33z"/>
	<path fill="#FF4925" d="M269.99,229.07c9.72,5.52,18.99,11.8,28.6,17.51c1.08,0.71,2.51,1.11,2.98,2.47
		c0.13,0.22,0.399,0.65,0.529,0.87c1.58,0.35,3.181,0.57,4.78,0.84c0.62,0.25,1.84,0.75,2.46,1c-1.729,2.08-3.51,4.12-5.31,6.141
		c-0.23,0.27-0.69,0.81-0.931,1.08c0.66,1.039,1.341,2.06,2.061,3.069c-0.55,0.24-1.65,0.71-2.19,0.95c-2.729-2.26-5.42-4.56-7.97-7
		c-0.94-0.7-1.67-2.02-2.98-1.94c-1.989-0.26-2.96,1.46-3.869,2.881c0.149-0.54,0.449-1.641,0.6-2.181l-0.79-0.6l-1.16,0.28
		c-4.78-2.82-8.79-6.86-13.29-10.141c6.13-1.05,12.05,3.97,18.01,1.92c4.12,2.561,8.19,5.2,12.341,7.71
		c-1.69-2.55-4.67-3.859-7.04-5.71C287.92,241.78,278.53,235.98,269.99,229.07L269.99,229.07z"/>
	<path fill="#FF6419" d="M0,236.64c2.43-1.97,4.83-4.12,7.7-5.439c-2.7,2.05-5.25,4.29-7.7,6.64V236.64L0,236.64z"/>
	<path fill="#FF4C25" d="M249.94,231.96c7.68,4.96,14.6,11.04,22.18,16.15c-1.72-3.42-5.54-5.181-8.16-7.92
		c0.75-0.011,1.42,0.229,2.01,0.71c6.58,4.6,13,9.42,19.67,13.899c-2.029,0.65-4.06,1.26-6.1,1.86
		C269.7,248.4,259.34,240.7,249.94,231.96L249.94,231.96z"/>
	<path fill="#FF4F26" d="M241.35,236c9.53,7.52,18.631,15.58,27.881,23.45l0.689,0.62c-0.45,0.17-1.36,0.52-1.81,0.689
		C259.25,252.44,250.11,244.41,241.35,236L241.35,236z"/>
	<path fill="#FF4F26" d="M238.16,237.93c9.8,8.021,19.79,15.83,29.229,24.29c0.08,1.271,0.17,2.55,0.25,3.83
		c0.061,1.48,0.11,2.96,0.15,4.44c0.61-0.101,1.84-0.311,2.45-0.42c0.33,0.489,1.01,1.46,1.34,1.949
		c-0.771-0.109-2.311-0.329-3.08-0.439c-6.03-6.68-13.09-12.48-18.69-19.51c3.971,3.04,7.37,6.87,11.671,9.43
		C254.38,253.08,245.53,246.16,238.16,237.93L238.16,237.93z"/>
	<path fill="#FF2A15" d="M401.86,238.1c5.06,0.771,9.97,2.25,15,3.23c5.979,1.89,12.21,2.78,18.26,4.439
		c6.229,1.761,12.54,3.141,18.88,4.421v21.88c-10.94-3.19-22.19-5.101-33.15-8.181c0.7-0.649,1.41-1.29,2.12-1.92
		c-1.72-0.96-3.149-2.3-4.17-3.979c-0.24,0.74-0.49,1.49-0.729,2.229c-1.41-3.16-4.551-5.09-5.771-8.319
		c-1.08-2.54-3.43-4.11-5.3-6.021c-0.09-1.11-0.17-2.21-0.26-3.31c-0.51,0.3-1.01,0.6-1.5,0.89c-1.3-0.85-2.521-1.79-3.66-2.82
		C401.66,239.79,401.76,238.94,401.86,238.1L401.86,238.1z"/>
	<path fill="#FF340D" d="M322.22,239.33c1.25,0.88,2.63,1.33,4.141,1.34c-0.54,0.23-0.87,0.61-1,1.15
		c8.13,0.609,15.79,3.729,23.819,4.97c9.84,2.72,19.9,4.479,29.73,7.24c-0.16,0.93-0.311,1.87-0.46,2.81
		c1.899,3.34,6.05,3.13,9.21,4.46c0.04,0.34,0.12,1.01,0.16,1.351c-5.83-1.79-11.9-2.79-17.83-4.15
		c-1.101,0.52-2.181,1.06-3.26,1.62c-0.391,1.21-0.66,2.46-1.04,3.68c-3.21-0.399-6.25-1.58-9.44-2.02
		c-0.48-2.05-0.72-4.141-0.87-6.23c-3.79-0.45-7.62-0.16-11.43-0.21c-1.34-0.09-2.41,0.811-3.53,1.38
		c-3.47-0.439-6.96-0.479-10.43-0.85c-1.57,0.12-2.721-0.97-3.33-2.32c-1.37-4-4.641-7.13-6.73-10.81l-0.729-0.33
		c-2.94,0.88-4.851,3.43-6.59,5.78c-1.08,1.199-2.19,2.369-3.271,3.569c-0.62-0.25-1.84-0.75-2.46-1c2.92-3.05,5.89-6.05,8.87-9.06
		C317.36,239.83,320.04,240.04,322.22,239.33L322.22,239.33z"/>
	<path fill="#FF4F26" d="M255,240.99c8.71,3.729,15.32,10.87,23.06,16.16c-1.43,0.52-2.869,1.05-4.34,1.46
		C267.91,252.28,260.91,247.2,255,240.99L255,240.99z"/>
	<path fill="#FF642B" d="M0,250.03c2.93-2.34,5.58-5.05,8.76-7.061c-2.77,3.15-5.68,6.2-8.76,9.05V250.03L0,250.03z"/>
	<path fill="#3C436F" d="M312.61,248.19c1.739-2.351,3.649-4.9,6.59-5.78C317.78,245.01,315.76,247.74,312.61,248.19L312.61,248.19z
		"/>
	<path fill="#3368B0" d="M319.2,242.41l0.729,0.33c2.09,3.68,5.36,6.81,6.73,10.81c-2.54,1.061-4.94,2.45-7.351,3.78
		c-0.079,0.439-0.229,1.33-0.31,1.77c2.83,0.341,5.53,1.53,7.58,3.551c0.87,0.96,1.79,1.979,3.12,2.27
		c0.34-2.3,0.439-4.64,1.05-6.88c3.12,0.42,6.41-0.12,9.46,0.66c0.19,0.26,0.58,0.79,0.771,1.05c-2.41,0.19-4.91-0.08-7.221,0.78
		c-0.33,5.55-2.21,10.899-2.359,16.439c0.619,0.511,1.869,1.521,2.489,2.03c-1.29,1.6-3.43,2.68-3.92,4.81
		c-0.52,1.83-0.6,3.74-0.83,5.61c2.66,0.53,5.301,1.3,8.051,1.24l-0.421,0.58c-1.829,0.069-3.659,0.029-5.479-0.01
		c0.51,0.72,1.01,1.439,1.53,2.17c-2.44-0.33-4.88-0.61-7.301-1c-0.109-2.17,0.4-4.301,0.521-6.45c-3.271,1.24-6.54,2.46-9.96,3.149
		c-0.11,0.4-0.33,1.2-0.44,1.601c-0.01,3.58,0.15,7.17-0.029,10.75l-0.301,0.229c-3.8-2.779-8.279-4.37-12.39-6.6
		c-4.21-2-8.31-4.271-12.64-5.98c-0.431,0.96-0.641,1.971-0.63,3.04c-0.021,2.63,0.149,5.261-0.011,7.891
		c-1.83-0.65-3.659-0.021-5.43,0.47c-0.31-0.68-0.62-1.34-0.92-2.01c-1.18-0.25-2.37-0.49-3.47-0.99c2.33,0,4.689-0.1,6.859-1.04
		c-0.27-4.39-0.149-8.79-0.13-13.18c8.74,3.96,17.01,9.1,25.96,12.489c-0.12-2.029-0.14-4.06-0.02-6.079
		c-1.45-0.841-3.08-1.16-4.71-1.391c-3.181-1.34-5.601-3.85-7.69-6.51c-2.92-2.2-7.33-2.17-9.859-4.73
		c3.84-3.38,7.189-7.29,10.619-11.069c-2.38-2.08-4.8-4.15-6.869-6.561c-3.841,2.011-5.051,7.48-8.65,10.12
		c-0.05-1.68-0.07-3.359-0.14-5.03c0.68-2.329,0.8-4.93,2.46-6.84c0.25,0.811,0.739,2.44,0.979,3.25
		c1.92-1.699,2.18-4.649,3.39-6.87c1.311-0.079,2.04,1.24,2.98,1.94c2.55,2.44,5.24,4.74,7.97,7c0.54-0.24,1.641-0.71,2.19-0.95
		c1.18-0.55,2.3-1.229,3.41-1.91c-0.5-2.06-2.79-2.37-4.54-2.239c1.8-2.021,3.58-4.061,5.31-6.141c1.08-1.2,2.19-2.37,3.271-3.569
		C315.76,247.74,317.78,245.01,319.2,242.41L319.2,242.41z"/>
	<path fill="#FF642B" d="M0,253.19c3.21-2.221,6.6-4.15,9.86-6.271c-3.08,3.61-6.57,6.86-9.86,10.28V253.19L0,253.19z"/>
	<path fill="#977F76" d="M234.65,247.87c3.64,2.46,6.5,5.86,9.67,8.86c-0.95-0.04-1.891-0.12-2.83-0.211
		C239.38,253.5,236.18,251.28,234.65,247.87L234.65,247.87z"/>
	<path fill="#AD992D" d="M317.37,249.26c0.29-0.85,0.81-1.51,1.55-1.99c1.63,1.45,3.12,3.33,3.88,5.41
		c-0.38,0.12-1.14,0.36-1.52,0.471C320.32,251.52,319.23,249.92,317.37,249.26L317.37,249.26z"/>
	<path fill="#FF6419" d="M16.86,253.86c1.45-1.33,2.67-3.23,4.78-3.45C14.91,259.35,7.18,267.54,0,276.14v-5.069
		c0.9-0.42,1.59-1.07,2.09-1.94C6.85,263.89,11.97,258.99,16.86,253.86L16.86,253.86z"/>
	<path fill="#FFCB05" d="M311.36,257.6c0.81-3.279,4.189-5.449,6.01-8.34c1.86,0.66,2.95,2.26,3.91,3.891
		C317.93,254.52,314.83,256.88,311.36,257.6L311.36,257.6z"/>
	<path fill="#FF6419" d="M0,263.5c4.29-4.22,8.55-8.49,13.09-12.43C8.96,256.1,4.32,260.69,0,265.56V263.5L0,263.5z"/>
	<path fill="#A1796F" d="M233.77,250.91c2.62,1.3,4.36,3.74,6.44,5.72c-0.52,0.07-1.57,0.22-2.09,0.29
		C236.48,255.07,234.79,253.2,233.77,250.91L233.77,250.91z"/>
	<path fill="#FF4F26" d="M246.57,256.78c-1.011-1.98-3.08-3.471-3.431-5.71c2.36,2.25,4.641,4.58,7.11,6.72
		C248.99,257.53,247.74,257.27,246.57,256.78L246.57,256.78z"/>
	<path fill="#3960AA" d="M286.8,254.44l1.16-0.28l0.79,0.6c-0.15,0.54-0.45,1.641-0.6,2.181l-0.5,0.739
		c-1.66,1.91-1.78,4.511-2.46,6.84c-0.79-1.699-0.391-3.6-0.61-5.399c-3.4,1.1-6.88,1.95-10.25,3.11
		c-0.01,0.6-0.021,1.81-0.021,2.409c0.98-0.189,1.98-0.37,2.971-0.55c0.229,3.641,0.7,7.26,1.069,10.891
		c0.96,2.01,2.91,3.6,3.21,5.909c0.36,3.49,0.54,7.261-1.31,10.391c-1.19,1.89-0.27,4.149-0.43,6.22c1.1,0.5,2.29,0.74,3.47,0.99
		c0.3,0.67,0.61,1.33,0.92,2.01c-2.07,0.54-4.2,0.85-6.33,1.1c-1-1.63-0.85-3.649-1.25-5.46c-0.83,0.66-1.63,1.341-2.42,2.04
		c-0.14,1.42-0.27,2.84-0.38,4.271c-0.65-0.851-1.33-1.67-2.03-2.47l-0.47-0.48c-4.811,1.81-10.68,1.36-14.36-2.54
		c-2.62-2.13-3.229-5.52-4.38-8.5c-0.32-0.05-0.95-0.17-1.27-0.22c0,2.569,0.42,5.12,1.05,7.62c0.61,3.76,2.39,7.31,2.41,11.149
		c-4.45,0.5-8.521,2.46-12.681,3.96c-3.859-7.95-7.199-16.16-11.1-24.1c-0.95-2.601-1.99-5.18-3.41-7.561
		c-1.11,0.25-2.21,0.511-3.3,0.801c-0.82-1.19-1.63-2.38-2.42-3.591c-2.09-3.59-4.01-7.3-6.53-10.609c2.32-1.891,5.06-3.18,7.7-4.54
		c0.43-0.2,1.29-0.61,1.72-0.811c1.47-0.569,2.811-1.439,3.74-2.739c3.22,0.55,6.4-0.75,9.62-0.9c0.52-0.07,1.57-0.22,2.09-0.29
		c0.32-0.03,0.96-0.09,1.28-0.11c0.939,0.091,1.88,0.171,2.83,0.211c0.56,0.01,1.689,0.039,2.25,0.05
		c1.17,0.489,2.42,0.75,3.68,1.01c4.33,1.81,7.84,5.12,9.98,9.29c0.239,2.51,1.1,5.22-0.04,7.63c0.29-0.35,0.85-1.04,1.14-1.39
		c1.47,0.279,2.78-0.57,4.16-0.94c0.75-0.2,2.26-0.6,3.01-0.8c0.77,0.11,2.31,0.33,3.08,0.439c1.05,0.261,2.08,0.551,3.13,0.841
		c0.03-1.21-0.01-2.41-0.12-3.601c-0.6-1.49-2.41-0.52-3.53-0.55c-0.05-1.97-0.189-3.94-0.34-5.91c-0.06-0.55-0.17-1.64-0.229-2.189
		c-0.141-0.13-0.431-0.41-0.57-0.54l-0.689-0.62c1.51-0.19,3.01-0.46,4.489-0.84c1.471-0.41,2.91-0.94,4.34-1.46
		c0.37-0.131,1.11-0.37,1.48-0.49c2.04-0.601,4.07-1.21,6.1-1.86C285.93,254.71,286.51,254.53,286.8,254.44L286.8,254.44z"/>
	<path fill="#3D4774" d="M288.15,256.94c0.909-1.421,1.88-3.141,3.869-2.881c-1.21,2.221-1.47,5.171-3.39,6.87
		c-0.24-0.81-0.729-2.439-0.979-3.25L288.15,256.94L288.15,256.94z"/>
	<path fill="#FF4524" d="M319.31,257.33c2.41-1.33,4.811-2.72,7.351-3.78c0.609,1.351,1.76,2.44,3.33,2.32
		c3.47,0.37,6.96,0.41,10.43,0.85c-2.91,1.42-6.37,0.2-9.5,0.63c-1.45-0.02-2.38,1.101-3.37,1.98c-0.05,1.2-0.38,2.31-0.97,3.32
		c-2.05-2.021-4.75-3.21-7.58-3.551C319.08,258.66,319.23,257.77,319.31,257.33L319.31,257.33z"/>
	<path fill="#FF2509" d="M378.91,254.03c13.97,3.31,27.99,6.45,41.939,9.859c10.96,3.08,22.21,4.99,33.15,8.181v11.18
		c-16.88-3.77-33.77-7.51-50.63-11.37c0.6-1.76,1.36-3.479,1.479-5.35c-4.909-1.221-9.819-2.811-14.84-3.32
		c-0.55,0.22-1.649,0.68-2.21,0.9l0.021-1.46c-0.04-0.341-0.12-1.011-0.16-1.351c-3.16-1.33-7.311-1.12-9.21-4.46
		C378.6,255.9,378.75,254.96,378.91,254.03L378.91,254.03z"/>
	<path fill="#968B7A" d="M22.25,260.38c-1.29-2.54,2.45-4.33,4.14-5.71C25.59,256.94,23.99,258.78,22.25,260.38L22.25,260.38z"/>
	<path fill="#2E70B5" d="M340.42,256.72c1.12-0.569,2.19-1.47,3.53-1.38c3.81,0.05,7.64-0.24,11.43,0.21
		c0.15,2.09,0.39,4.181,0.87,6.23c0.4,3.359,1.05,6.68,1.53,10.029c2.64-1.729,5.649-2.64,8.8-2.72c1.96,0.3,3.91,0.73,5.88,1.021
		c-0.64-1.271-1.75-2.17-2.729-3.15c0.22-2.82,0.5-5.64,0.26-8.46c5.93,1.36,12,2.36,17.83,4.15l-0.021,1.46
		c-0.26,0.87,0.17,3.6,1.54,2.399c0.47-1.04,0.69-2.14,0.67-3.3c5.021,0.51,9.931,2.1,14.84,3.32c-0.119,1.87-0.88,3.59-1.479,5.35
		c-2.23,6.64-4.4,13.311-6.59,19.96c-0.91,2.8-1.86,5.58-2.761,8.38c-1.39,3.141-1.93,6.601-3.489,9.66
		c-3.521-1.41-7.271-2.189-10.681-3.84c-0.119-1.3-0.229-2.6-0.35-3.89c-3.29-0.761-6.63-1.261-9.94-1.86
		c-0.09-1.74-0.05-3.46,0.03-5.19c-1.17,0.24-2.34,0.521-3.33,1.2c-1.189,0.87-2.529,1.311-4.029,1.34
		c0.06,1.38,0.14,2.771,0.229,4.16l-0.54,0.26c-4.91-2.05-10.58-1.369-15.34-3.68c-0.21-1.81-0.46-3.61-0.7-5.399
		c-0.72,0.77-1.42,1.55-2.12,2.34c-1.66-0.721-1.92-2.95-3.04-4.261c-1.729-0.17-1.22,2-1.689,3.04c-2.09,0.45-4.15-0.47-6.21-0.699
		c-0.521-0.73-1.021-1.45-1.53-2.17c1.82,0.039,3.65,0.079,5.479,0.01l0.421-0.58c0.17-3.88,1.35-7.62,1.439-11.5
		c2.92,1.57,2.88,5.89,4.72,8.51c3.16,0.49,1.54-5.08,4.261-6.13c0.729,4.89,1.34,9.79,2.199,14.66c2.75,0.02,5.46,1.08,8.141,1.03
		c-0.07-0.44-0.2-1.32-0.26-1.771c-7.48-3.17-9-13.42-4.091-19.47c0.851-5.83-0.619-11.63-1.31-17.38
		c-1.87,0.05-3.72,0.06-5.58,0.029c-1.32,4.311-0.99,9.11-2.92,13.2c-0.2-3.8-1.72-7.34-1.48-11.2
		c-2.85-0.109-5.699-0.029-8.55-0.109c2.311-0.86,4.811-0.59,7.221-0.78c-0.19-0.26-0.58-0.79-0.771-1.05
		c-3.05-0.78-6.34-0.24-9.46-0.66l0.17-0.69C334.05,256.92,337.51,258.14,340.42,256.72L340.42,256.72z"/>
	<path fill="#FF642B" d="M0,280.25c7.32-8.23,14.53-16.55,21.98-24.66c-1.13,3.44-4.28,5.82-6.33,8.74
		c-4.76,6.27-10.46,11.92-14.59,18.6c5.52-5.52,10.26-11.75,15.6-17.439l-1.01-1.16l1.07,0.96c1.92-1.42,2.97-5.17,5.53-4.91
		c-5.63,7.03-11.31,14.03-16.72,21.23c-0.17,0.37-0.5,1.1-0.66,1.47c7.06-7.33,13.19-15.5,20.11-22.96
		c-3.03,7.649-8.71,13.75-13.32,20.439c-0.82,1.431-2.36,2.62-2.45,4.36c7.01-7.6,12.83-16.35,20.86-22.96
		C20.25,276.04,9.97,289.8,0,303.79V280.25L0,280.25z"/>
	<path fill="#FF5515" d="M220.06,256.87c1.98,0.64,3.29,2.26,4.7,3.689c-0.43,0.2-1.29,0.61-1.72,0.811
		C221.96,259.93,220.77,258.54,220.06,256.87L220.06,256.87z"/>
	<path fill="#124984" d="M327.55,259.33c0.99-0.88,1.92-2,3.37-1.98l-0.17,0.69c-0.61,2.24-0.71,4.58-1.05,6.88
		c-1.33-0.29-2.25-1.31-3.12-2.27C327.17,261.64,327.5,260.53,327.55,259.33L327.55,259.33z"/>
	<path fill="#37365F" d="M303.1,258.98c0.24-0.271,0.7-0.811,0.931-1.08c1.75-0.131,4.04,0.18,4.54,2.239
		c-1.11,0.681-2.23,1.36-3.41,1.91C304.44,261.04,303.76,260.02,303.1,258.98L303.1,258.98z"/>
	<path fill="#FFCB05" d="M343.79,271.84c1.93-4.09,1.6-8.89,2.92-13.2c1.86,0.03,3.71,0.021,5.58-0.029
		c0.69,5.75,2.16,11.55,1.31,17.38c-4.909,6.05-3.39,16.3,4.091,19.47c0.06,0.45,0.189,1.33,0.26,1.771
		c-2.681,0.05-5.391-1.011-8.141-1.03c-0.859-4.87-1.47-9.771-2.199-14.66c-2.721,1.05-1.101,6.62-4.261,6.13
		c-1.84-2.62-1.8-6.939-4.72-8.51c-0.09,3.88-1.27,7.62-1.439,11.5c-2.75,0.06-5.391-0.71-8.051-1.24
		c0.23-1.87,0.311-3.78,0.83-5.61c0.49-2.13,2.63-3.21,3.92-4.81c-0.62-0.51-1.87-1.52-2.489-2.03
		c0.149-5.54,2.029-10.89,2.359-16.439c2.851,0.08,5.7,0,8.55,0.109C342.07,264.5,343.59,268.04,343.79,271.84L343.79,271.84z"/>
	<path fill="#164883" d="M366.73,260.12c1.079-0.561,2.159-1.101,3.26-1.62c0.24,2.82-0.04,5.64-0.26,8.46
		c0.979,0.98,2.09,1.88,2.729,3.15c-1.97-0.29-3.92-0.721-5.88-1.021C366.66,266.1,366.57,263.11,366.73,260.12L366.73,260.12z"/>
	<path fill="#1D2C5E" d="M269.92,260.07c0.14,0.13,0.43,0.41,0.57,0.54c0.06,0.55,0.17,1.64,0.229,2.189
		c-1.05,1.07-2.069,2.15-3.08,3.25c-0.08-1.28-0.17-2.56-0.25-3.83l0.721-1.46C268.56,260.59,269.47,260.24,269.92,260.07
		L269.92,260.07z"/>
	<path fill="#FFCB05" d="M274.33,262.23c3.37-1.16,6.85-2.011,10.25-3.11c0.22,1.8-0.18,3.7,0.61,5.399
		c0.069,1.671,0.09,3.351,0.14,5.03c3.6-2.64,4.81-8.109,8.65-10.12c2.069,2.41,4.489,4.48,6.869,6.561
		c-3.43,3.779-6.779,7.689-10.619,11.069c2.529,2.561,6.939,2.53,9.859,4.73c2.09,2.66,4.51,5.17,7.69,6.51
		c1.63,0.23,3.26,0.55,4.71,1.391c-0.12,2.02-0.101,4.05,0.02,6.079c-8.95-3.39-17.22-8.529-25.96-12.489
		c-0.02,4.39-0.14,8.79,0.13,13.18c-2.17,0.94-4.529,1.04-6.859,1.04c0.16-2.07-0.761-4.33,0.43-6.22
		c1.85-3.13,1.67-6.9,1.31-10.391c-0.3-2.31-2.25-3.899-3.21-5.909c-0.369-3.631-0.84-7.25-1.069-10.891
		c-0.99,0.18-1.99,0.36-2.971,0.55C274.31,264.04,274.32,262.83,274.33,262.23L274.33,262.23z"/>
	<path fill="#FF4022" d="M365.69,263.8c0.38-1.22,0.649-2.47,1.04-3.68c-0.16,2.99-0.07,5.979-0.15,8.97
		c-3.15,0.08-6.16,0.99-8.8,2.72c-0.48-3.35-1.13-6.67-1.53-10.029C359.44,262.22,362.48,263.4,365.69,263.8L365.69,263.8z"/>
	<path fill="#FF642B" d="M24.66,275.64c4.49-4.52,7.57-10.279,12.29-14.58c-6.58,10.03-13.41,19.9-19.95,29.95
		c-1.76,3.34-3.5,6.69-5.52,9.891c-1.63-0.58-3.28-1.091-4.94-1.53C12.58,291.46,18.47,283.43,24.66,275.64L24.66,275.64z"/>
	<path fill="#FFCB05" d="M220.35,266.91c8.29-4.82,18.169-8.11,27.74-5.811c4.63,1.471,9.37,5.591,8.72,10.9
		c0.061,6.88-5.55,11.93-10.54,15.78c1.341,5.56,3.4,10.779,3.631,16.55c-1.94,0.72-3.91,1.4-5.971,1.729
		c-5.199-10.35-9.67-21.22-14.449-31.829c-1.431-0.311-2.53,0.949-3.69,1.51C223.85,272.88,222.39,269.71,220.35,266.91
		L220.35,266.91z"/>
	<path fill="#FF6519" d="M35.86,271.73c2.35-2.94,4.24-6.271,6.91-8.94c-1.26,2.28-2.37,4.65-3.32,7.09
		c2.25-1.45,3.95-3.37,5.1-5.77c-0.01,0.18-0.02,0.54-0.03,0.72c-3.76,6.43-7.72,12.75-11.54,19.16c-2.34-0.63-4.73-1.07-7.14-1.32
		c2.76-3.89,5.56-7.76,8.33-11.65C34.59,271.2,35.43,271.55,35.86,271.73L35.86,271.73z"/>
	<path fill="#165B96" d="M267.64,266.05c1.011-1.1,2.03-2.18,3.08-3.25c0.15,1.97,0.29,3.94,0.34,5.91
		c-0.21,0.34-0.619,1.021-0.819,1.36c-0.61,0.109-1.84,0.319-2.45,0.42C267.75,269.01,267.7,267.53,267.64,266.05L267.64,266.05z"/>
	<path fill="#FFCB05" d="M302.62,271.06c2.87-9.149,17.55-12.109,23.06-4.06c-3.399,3.89-7.699,7.21-10.449,11.55
		c2.76,0.09,5.239-1.319,7.22-3.149c2.319-0.79,3.43,2.01,5.1,3.04c1.21,2.159-1.569,3.21-2.97,4.119
		c-5.68,3.37-13.79,4.62-19.1-0.079C302.2,279.65,301.85,275.05,302.62,271.06L302.62,271.06z"/>
	<path fill="#FFCB05" d="M373.19,263.18c3.779-0.14,7.21,1.48,10.949,1.59c0.42,2.521,1.63,4.83,1.48,7.49
		c1.649,3.181,0.85,7.3,2.87,10.16c1.58-4.97,1.87-10.46,4.069-15.16c2.891-0.12,5.19,1.57,8.101,1.37
		c-3.99,12.49-8.01,24.58-12.29,36.99c-1.97-0.8-4.15-1.03-5.94-2.22c0.141-7.021-0.04-14.051-0.18-21.07
		c-0.17-0.01-0.5-0.021-0.67-0.03c-0.55,5.26-2.03,10.41-2.46,15.73c-1.93,1.35-4.59-0.271-6.72-0.61
		c0.1-1.46,0.229-2.92,0.369-4.36c5.471-4.54,8.181-13.43,3.4-19.38c-1.92-1.91-0.57-4.779-0.59-7.109
		C373.54,266.65,372.88,264.9,373.19,263.18L373.19,263.18z"/>
	<path fill="#353C6B" d="M387.8,264.11c0.561-0.221,1.66-0.681,2.21-0.9c0.021,1.16-0.2,2.26-0.67,3.3
		C387.97,267.71,387.54,264.98,387.8,264.11L387.8,264.11z"/>
	<path fill="#41AABA" d="M1.06,282.93c4.13-6.68,9.83-12.33,14.59-18.6l1.01,1.16C11.32,271.18,6.58,277.41,1.06,282.93L1.06,282.93
		z"/>
	<path fill="#FF4812" d="M212.27,265.14c1.34-0.08,2.13,0.57,2.37,1.95c-0.44,0.22-1.33,0.66-1.77,0.88
		C212.46,267.06,212.26,266.12,212.27,265.14L212.27,265.14z"/>
	<path fill="#124984" d="M215.34,265.91c2.52,3.31,4.44,7.02,6.53,10.609c-1.06,0.53-2.11,1.061-3.17,1.601
		c-1.78-3.48-4.54-6.43-5.83-10.15c0.44-0.22,1.33-0.66,1.77-0.88C214.82,266.79,215.16,266.2,215.34,265.91L215.34,265.91z"/>
	<path fill="#3567B0" d="M307.8,273.02c-0.56-5.529,8.07-9.649,11.021-4.069c-2.49,2.46-4.761,5.12-7.051,7.77
		C309.33,278.4,307.46,275.18,307.8,273.02L307.8,273.02z"/>
	<path fill="#77968C" d="M0,267.01c0.82,0.58,1.51,1.29,2.09,2.12C1.59,270,0.9,270.65,0,271.07V267.01L0,267.01z"/>
	<path fill="#FF5515" d="M260.23,267.08c1.539,1.96,3.439,3.59,5.26,5.3c-1.38,0.37-2.69,1.22-4.16,0.94
		c-0.29,0.35-0.85,1.04-1.14,1.39C261.33,272.3,260.47,269.59,260.23,267.08L260.23,267.08z"/>
	<path fill="#303D6B" d="M271.06,268.71c1.12,0.03,2.931-0.94,3.53,0.55c0.11,1.19,0.15,2.391,0.12,3.601
		c-1.05-0.29-2.08-0.58-3.13-0.841c-0.33-0.489-1.01-1.46-1.34-1.949C270.44,269.73,270.85,269.05,271.06,268.71L271.06,268.71z"/>
	<path fill="#3DA8B9" d="M40.18,268.02c-0.07,0.721-0.21,2.16-0.29,2.891c-1.69,1.33-2.09,3.85-4.05,4.82
		C36.78,272.91,38.53,270.45,40.18,268.02L40.18,268.02z"/>
	<path fill="#FF4D25" d="M310.44,271.21c1.18-1.15,2.64-1.84,4.319-1.75c-0.95,1.81-2.38,4.18-4.55,4.55
		C310.27,273.31,310.39,271.91,310.44,271.21L310.44,271.21z"/>
	<path fill="#27467F" d="M327.31,273.69c-2.5-1.131-0.47-4.061,1.421-4.53C329.27,270.6,329.19,273.38,327.31,273.69L327.31,273.69z
		"/>
	<path fill="#FF6519" d="M17.41,311.5c8.95-13.77,17.44-27.84,26.45-41.56c-0.72,2.1-1.97,3.949-3.05,5.88
		c-9.91,17.489-20.55,34.58-30.03,52.29c2.04-1.36,4.12-2.83,5.37-4.99c3.91-6.16,7.75-12.351,11.6-18.54
		c2.59,0.33,5.14,0.88,7.62,1.71c-3.08,6.25-6.42,12.38-9.33,18.72l0.84-0.41c4.71-5.51,8.23-11.869,11.58-18.279
		c1.78,0.859,3.54,1.76,5.28,2.71c-1.11,2.689-2.24,5.37-3.35,8.069c-0.98,2.71-2.98,5.48-1.52,8.431c3.77-2.141,5.5-6.24,7.98-9.57
		c6.35-12.42,11.34-25.52,17.86-37.85c-5.33,13.729-11.05,27.319-16.33,41.08c0.04,0.279,0.12,0.85,0.16,1.14
		c1.18-1.86,2.18-3.82,3.4-5.64c-0.05,3.569-1.85,6.81-2.57,10.27c1.04-0.53,1.26-1.77,1.77-2.71c6.37-14.66,12.1-29.61,18.7-44.17
		c-4.82,14.38-10.51,28.45-15.43,42.79c0.15-0.11,0.45-0.351,0.6-0.47c5.39-11.601,9.53-23.75,14.76-35.431
		c-3.04,10.88-7.41,21.351-10.65,32.17c3.51-4.76,4.73-10.93,7.62-16.12c-1.54,6.83-4.32,13.33-5.66,20.211
		c3.72-6.421,5.31-13.91,8.7-20.521c-1.57,13.28-6.81,25.72-9.73,38.7c0.77-0.7,1.34-1.53,1.72-2.49c1.78-4.39,4.82-8.11,6.72-12.45
		c4.03-11.75,7.74-23.609,11.62-35.42c0.8-2.49,2.24-4.7,3.53-6.96c-3.18,13.73-7.41,27.21-10.32,41c0.46-0.67,0.81-1.399,1.03-2.18
		c3.6-11.28,6.75-22.7,10.32-33.98c-3.53,17.83-9.09,35.24-12.65,53.07H0v-33.46l0.44,1.24c1.75-3,4.05-5.62,6.1-8.41
		c1.66,0.439,3.31,0.95,4.94,1.53c-0.93,1.569-1.82,3.18-2.35,4.939c1.35-1.55,2.54-3.229,3.75-4.89c2.85,0.67,5.8,1.02,8.49,2.24
		c-3.06,5.229-6.34,10.35-9.14,15.729C14.27,316.67,15.74,314.01,17.41,311.5L17.41,311.5z"/>
	<path fill="#FF5B29" d="M202.31,270.2c1.14,0.09,1.36,1.53,2.03,2.25c3.74,6.02,7.28,12.17,11.14,18.109
		c0.74,1.301,2.1,2.07,3.54,2.37c-1.13-3.149-3.05-5.949-4.11-9.13c2.53,1.931,3.67,5.101,6.03,7.22c2.79,2.54,4.09,6.4,7.21,8.561
		c-0.66-1.96-1.55-3.79-2.371-5.68c4.19,3.67,6.541,9.17,10.05,13.52c0.18,0.37,0.55,1.1,0.74,1.47
		c-4.94-0.109-9.58-1.96-14.4-2.659c-0.43,0.17-1.28,0.489-1.7,0.659c-5.16-9.949-10.44-19.83-15.54-29.81
		C203.87,274.86,203.23,272.47,202.31,270.2L202.31,270.2z"/>
	<path fill="#3C5AA6" d="M242.25,270.27c3.55-0.899,7.85-0.27,9.27,3.58c0.53,4.25-3.22,7.9-6.789,9.58
		C244.43,278.97,241.06,274.73,242.25,270.27L242.25,270.27z"/>
	<path fill="#FF6519" d="M245.48,272.31c0.63,0.391,1.26,0.79,1.89,1.2c-0.53,1.601,0.729,4.32-0.72,5.29
		c-0.44-1.33-1.33-2.64-0.94-4.109c0.17,0.52,0.49,1.54,0.65,2.06c0.85-0.95,0.899-2.08,0.149-3.4l-0.59,0.301
		C245.81,273.31,245.59,272.64,245.48,272.31L245.48,272.31z"/>
	<path fill="#FFCB05" d="M363.49,272.61c3.99-1.03,8.76,0.029,10.84,3.87c5.01,8.68-5.99,20.279-15.13,16.199
		c-4.95-1.949-6.11-8.16-4.26-12.68C356.59,276.47,359.78,273.76,363.49,272.61L363.49,272.61z"/>
	<path fill="#FF3720" d="M403.37,271.88c16.86,3.86,33.75,7.601,50.63,11.37v21.63c-13.44-3.8-27.29-5.99-40.89-9.13
		c-5.431-1.37-11.051-1.98-16.33-3.91C398.97,285.19,401.14,278.52,403.37,271.88L403.37,271.88z"/>
	<path fill="#FF642B" d="M50.11,285.12c2.92-3.84,4.54-8.53,7.74-12.15c-3.65,8.3-7.64,16.44-11.23,24.771
		c-0.84,1.64,0.27,3.529-0.44,5.21c-0.73,2.06-1.62,4.05-2.44,6.08c-1.74-0.95-3.5-1.851-5.28-2.71
		C42.35,299.26,46.02,292.06,50.11,285.12L50.11,285.12z"/>
	<path fill="#489EAE" d="M245.92,273.65l0.59-0.301c0.75,1.32,0.7,2.45-0.149,3.4c-0.16-0.52-0.48-1.54-0.65-2.06L245.92,273.65
		L245.92,273.65z"/>
	<path fill="#FF4812" d="M296.2,275.4c0.64-0.851,1.49-1.29,2.54-1.341c0,1.19-0.04,2.37-0.13,3.57
		C297.49,277.26,295.98,276.92,296.2,275.4L296.2,275.4z"/>
	<path fill="#3466AF" d="M359.63,280.1c-0.39-3.479,2.98-6.649,6.43-5.949c-0.939,0.84-1.85,1.72-2.67,2.689
		c0.391,2.69,3.841,4.811,6.051,2.58c0.22-0.9,0.6-1.729,1.13-2.49c0.54,2.15,0.87,4.931-1.13,6.46c-1.721,1.75-4.37,1.25-6.54,0.99
		C361.38,283.31,360.16,281.9,359.63,280.1L359.63,280.1z"/>
	<path fill="#FFCB05" d="M264.48,275.71c2.439-0.26,5.079-2.26,7.38-0.479c3.84,0.26,6.81,4.09,6.76,7.81
		c0.74,6.06-3.76,12.11-9.59,13.65c-4.87,2-10.88-1.141-12.34-6.15C254.98,284.5,259.06,278.23,264.48,275.71L264.48,275.71z"/>
	<path fill="#FF642B" d="M42.5,287.51c3.36-2.72,4.61-7.319,7.41-10.609c-4.2,10.08-9.81,19.529-14.54,29.39
		c-2.48-0.83-5.03-1.38-7.62-1.71c4.98-7.82,10.17-15.66,16.58-22.34C43.79,284.02,43.13,285.76,42.5,287.51L42.5,287.51z"/>
	<path fill="#0C6CAB" d="M218.7,278.12c1.06-0.54,2.11-1.07,3.17-1.601c0.79,1.211,1.6,2.4,2.42,3.591
		c-0.31,0.449-0.94,1.35-1.26,1.8c-0.21,0.29-0.64,0.87-0.86,1.16C220.65,281.69,219.59,279.94,218.7,278.12L218.7,278.12z"/>
	<path fill="#3663AD" d="M263.29,282.99c-0.89-3.26,2.22-6.65,5.63-5.931c-4.25,2.421-0.439,7.49,3.28,5.591
		c0.39-1.24,1.01-2.61,2.569-2.4c0.23,2.66-0.699,6.19-3.76,6.7C268.04,287.87,263.46,286.62,263.29,282.99L263.29,282.99z"/>
	<path fill="#FF5E17" d="M190.23,284.77c-0.76-1.93-1.72-3.819-1.97-5.899c5.75,12.71,11.67,25.34,17.34,38.09
		c0.33-4.16-2.5-7.88-3.49-11.84l0.72,0.21c4.54,6.36,8.05,13.33,11.5,20.32c-2.65-0.471-5.31-0.86-7.97-1.24
		C200.98,311.2,195.51,298.02,190.23,284.77L190.23,284.77z"/>
	<path fill="#14518E" d="M224.29,280.11c1.09-0.29,2.19-0.551,3.3-0.801c1.42,2.381,2.46,4.96,3.41,7.561
		c-1.41-0.2-2.82-0.41-4.23-0.61c-1.11-1.63-0.95-5.45-3.74-4.35C223.35,281.46,223.98,280.56,224.29,280.11L224.29,280.11z"/>
	<path fill="#FF5F17" d="M182.22,279.97c2.94,7.46,6.19,14.8,9.39,22.16c0.89-3.84-0.61-7.479-1.32-11.18
		c4.97,10.53,9.41,21.3,14.14,31.939c-3.77,0.13-7.38-1.14-11.09-1.529c-2.56-8.521-6.1-16.771-8.01-25.46
		c2.34,5.659,4.71,11.3,7.04,16.96c0.69,1.42,1.04,3.14,2.39,4.13c-3.19-9.32-6.56-18.58-9.83-27.87
		C183.93,286.1,182.61,283.15,182.22,279.97L182.22,279.97z"/>
	<path fill="#FF5B29" d="M222.17,283.07c0.22-0.29,0.65-0.87,0.86-1.16c2.79-1.101,2.63,2.72,3.74,4.35
		c2.01,4.721,4.43,9.28,6.09,14.141C229.26,294.65,225.91,288.73,222.17,283.07L222.17,283.07z"/>
	<path fill="#FF642B" d="M12.88,300.95c4.31-6.101,8.65-12.181,12.96-18.28c2.41,0.25,4.8,0.69,7.14,1.32
		c-3.87,6.399-7.75,12.79-11.61,19.2C18.68,301.97,15.73,301.62,12.88,300.95L12.88,300.95z"/>
	<path fill="#FF6419" d="M163.28,284.85c3.26,10.41,7.08,20.631,9.94,31.181c-0.83,0-2.48-0.021-3.3-0.021
		C167.76,305.61,164.96,295.33,163.28,284.85L163.28,284.85z"/>
	<path fill="#1D2C5E" d="M226.77,286.26c1.41,0.2,2.82,0.41,4.23,0.61c3.9,7.939,7.24,16.149,11.1,24.1
		c4.16-1.5,8.23-3.46,12.681-3.96c-1.29,0.46-2.771,0.8-2.681,2.5c-2.279-0.77-4.229,0.84-6.43,1.15
		c-2.53,0.31-4.66,2.189-7.21,2.13c-0.6-1.32-1.229-2.62-1.89-3.9c-0.19-0.37-0.561-1.1-0.74-1.47c-0.61-2.49-1.85-4.74-2.97-7.02
		C231.2,295.54,228.78,290.98,226.77,286.26L226.77,286.26z"/>
	<path fill="#21386E" d="M316.08,289.1c3.42-0.689,6.689-1.909,9.96-3.149c-0.12,2.149-0.63,4.28-0.521,6.45
		c2.421,0.39,4.86,0.67,7.301,1c2.06,0.229,4.12,1.149,6.21,0.699c0.47-1.04-0.04-3.21,1.689-3.04c1.12,1.311,1.38,3.54,3.04,4.261
		c0.7-0.79,1.4-1.57,2.12-2.34c0.24,1.789,0.49,3.59,0.7,5.399c4.76,2.311,10.43,1.63,15.34,3.68c-0.72,0.36-2.14,1.091-2.86,1.45
		c-5.17-1.13-10.47-1.63-15.59-2.95c-0.18-1.119-0.39-2.22-0.62-3.319c-0.729,0.069-2.189,0.2-2.92,0.27
		c-0.3-0.609-0.91-1.81-1.21-2.42c-1.21,0.32-2.399,0.69-3.609,0.98c-4.301-0.84-8.681-1.28-12.96-2.19
		c0.199-1.88,0.359-3.77,0.47-5.649c-2.24,1.06-4.41,2.52-6.98,2.47C315.75,290.3,315.97,289.5,316.08,289.1L316.08,289.1z"/>
	<path fill="#1E2C5E" d="M251.32,288.24c0.319,0.05,0.949,0.17,1.27,0.22c1.15,2.98,1.76,6.37,4.38,8.5
		c3.681,3.9,9.55,4.35,14.36,2.54l0.47,0.48c-0.7,0.479-1.399,0.96-2.1,1.43l-0.7,0.34c-5.97,2.45-14.17,0.57-16.63-5.89
		C251.74,293.36,251.32,290.81,251.32,288.24L251.32,288.24z"/>
	<path fill="#21386E" d="M290.28,289.1c4.33,1.71,8.43,3.98,12.64,5.98c4.11,2.229,8.59,3.82,12.39,6.6
		c-1.159,0.62-2.63,1.75-3.979,0.98c-6.82-3.23-13.45-6.851-20.32-9.97l-1.359-0.551C289.64,291.07,289.85,290.06,290.28,289.1
		L290.28,289.1z"/>
	<path fill="#FF3C0F" d="M315.64,290.7c2.57,0.05,4.74-1.41,6.98-2.47c-0.11,1.88-0.271,3.77-0.47,5.649
		c4.279,0.91,8.659,1.351,12.96,2.19c1.21-0.29,2.399-0.66,3.609-0.98c0.3,0.61,0.91,1.811,1.21,2.42c0.73-0.069,2.19-0.2,2.92-0.27
		c0.23,1.1,0.44,2.2,0.62,3.319c5.12,1.32,10.42,1.82,15.59,2.95c0.721-0.359,2.141-1.09,2.86-1.45l0.54-0.26
		c-0.09-1.39-0.17-2.78-0.229-4.16c1.5-0.029,2.84-0.47,4.029-1.34c0.21,1.98-0.05,3.97-0.2,5.94c3.46,0.439,6.91,0.95,10.351,1.54
		c0.02,1.45,0.08,2.91,0.22,4.359c3.57,0.87,7.03,2.13,10.48,3.4c1.149-0.521,2.399-0.88,3.42-1.66c1.56-3.06,2.1-6.52,3.489-9.66
		c1.48,1.42,0.431,3.73,1.601,5.2c1.01,0.26,2.04,0.48,3.09,0.66c1.7,0.18,2.42,1.729,3.33,2.95c1.17,0.64,2.479,0.96,3.74,1.399
		c-0.86,0.37-1.721,0.74-2.57,1.141c2.8,2.529,7.44,3.62,7.49,8.149c2.74,1.11,5.21,2.86,6.47,5.641c-0.27,0.81-0.6,1.62-0.46,2.5
		c-10.95-2.41-21.89-4.88-32.81-7.41c-22.591-4.521-44.94-10.181-67.46-15.01c-8.351-2.11-16.891-3.46-25.12-6.011
		c-0.29-2.229-0.28-4.489-0.311-6.739c6.87,3.119,13.5,6.739,20.32,9.97c1.35,0.77,2.82-0.36,3.979-0.98l0.301-0.229
		C315.79,297.87,315.63,294.28,315.64,290.7L315.64,290.7z"/>
	<path fill="#FF642B" d="M111.58,289.82c-0.01,3.729-0.1,7.46-0.31,11.189c-0.59,7.29,0.11,14.57-0.43,21.88
		c-1.07,0.051-3.21,0.141-4.28,0.19c0.52-5.09,2.03-10.01,2.44-15.11C109.93,301.93,110.16,295.78,111.58,289.82L111.58,289.82z"/>
	<path fill="#FF642B" d="M132.71,312.05c0.93-7.109,0.13-14.319,0.82-21.43c0.95,6.93,1.32,13.92,1.49,20.91
		c-0.08,3.92,0.61,7.81,1.06,11.7l0.75-0.45c0.62-4.42-0.55-9.09,1.13-13.34c-0.02,6.909,0.99,13.76,1.61,20.63
		c-2.27-0.601-4.58-1.061-6.92-1.07C132.59,323.35,132.75,317.7,132.71,312.05L132.71,312.05z"/>
	<path fill="#FF2D0B" d="M394.02,300.22c0.9-2.8,1.851-5.58,2.761-8.38c5.279,1.93,10.899,2.54,16.33,3.91
		c13.6,3.14,27.449,5.33,40.89,9.13v31.34c-12.44-2.75-24.81-5.819-37.29-8.359c-0.14-0.88,0.19-1.69,0.46-2.5
		c-1.26-2.78-3.729-4.53-6.47-5.641c-0.05-4.529-4.69-5.62-7.49-8.149c0.85-0.4,1.71-0.771,2.57-1.141
		c-1.261-0.439-2.57-0.76-3.74-1.399c-0.91-1.221-1.63-2.771-3.33-2.95c0.94-1.47,1.64-3.13,1.14-4.89
		C397.9,300.91,395.81,301.22,394.02,300.22L394.02,300.22z"/>
	<path fill="#FF6419" d="M93.51,293.05c-2.33,15.71-5.57,31.29-8.31,46.95h-2.56C86.37,324.37,89.63,308.63,93.51,293.05
		L93.51,293.05z"/>
	<path fill="#FF6519" d="M115.91,293.17c0.94,3.8,0.16,7.86-0.08,11.73c-0.05,11.71-1.09,23.39-1.15,35.1h-10.39
		c0.81-5.64,1.46-11.29,2.27-16.92c1.07-0.05,3.21-0.14,4.28-0.19c-0.01,1.61-0.04,3.221-0.07,4.83c0.15-0.029,0.45-0.1,0.6-0.14
		C114.13,316.3,114.89,304.7,115.91,293.17L115.91,293.17z"/>
	<path fill="#FF4D25" d="M289.65,292.14l1.359,0.551c0.03,2.25,0.021,4.51,0.311,6.739c8.229,2.551,16.77,3.9,25.12,6.011
		c22.52,4.829,44.869,10.489,67.46,15.01l-0.521,0.979c1.92,2.46,4.98,3.84,6.7,6.54c1.88,2.061,2.46,5.38,5.32,6.4
		c-0.351,0.5-0.69,1.02-1.021,1.54c1.4,0.74,2.851,1.38,4.351,1.899c-0.181,0.73-0.351,1.46-0.53,2.19h-24.73
		c-1.42-0.62-2.88-1.13-4.399-1.41c-19.061-4.12-38.08-8.45-57.15-12.5c-19.92-4.58-39.92-8.77-59.84-13.35
		c-2.13-0.69-4.75-0.37-6.41-2.08c2.2-0.311,4.15-1.92,6.43-1.15c-0.09-1.7,1.391-2.04,2.681-2.5c-0.021-3.84-1.8-7.39-2.41-11.149
		c2.46,6.46,10.66,8.34,16.63,5.89c0.17,1.29,1.4,2.84,2.78,2.84c0.47-1.37-0.971-2.67-2.08-3.18c0.7-0.47,1.399-0.95,2.1-1.43
		c0.7,0.8,1.38,1.619,2.03,2.47l0.56,0.8c5.08-0.97,10.61-0.7,15.25-3.22C289.8,297.4,289.63,294.77,289.65,292.14L289.65,292.14z"
		/>
	<path fill="#FF642B" d="M155.79,300.42c-0.31-2.2-0.5-4.43-0.39-6.65c1.52,7.11,2.91,14.261,5.04,21.221
		c1.99,8.31,3.69,16.68,5.6,25.01h-3.84C160.13,326.8,157.91,313.62,155.79,300.42L155.79,300.42z"/>
	<path fill="#FF632B" d="M162.41,294.03c1.31,2.09,1.76,4.55,2.4,6.899c2.15,8.04,4.03,16.15,6.28,24.17
		c0.44,1.29,0.46,2.86,1.55,3.841c-0.9-4.311-1.78-8.631-2.72-12.931c0.82,0,2.47,0.021,3.3,0.021c1.26,2.85,1.1,6.739,3.35,8.93
		c0.31-2.16-1.68-5.37,0.61-6.72c1.97,2.41,2.48,5.63,4.22,8.21c2.22,3.66,2.48,8.479,5.36,11.67c-3.11-12.04-6.72-23.94-9.82-35.98
		c-0.35-1.35-0.47-2.739-0.59-4.109c3.97,12.439,8.17,24.83,12.35,37.21c0.48,1.859,1.69,3.359,2.96,4.76h-24.13
		c-0.45-3.32-1.13-6.62-1.27-9.97c-0.48-7.771-2.91-15.32-3.21-23.09c1.61,1.6,1.26,4.479,2.78,6.3
		C165.01,306.79,163.76,300.38,162.41,294.03L162.41,294.03z"/>
	<path fill="#FF5515" d="M218.23,309.68c-1.99-5.43-5.3-10.38-6.92-15.91c4.47,6.57,7.64,14.061,12.62,20.23
		c-0.99-2.45-2.28-4.76-3.46-7.11c0.42-0.17,1.27-0.489,1.7-0.659c4.82,0.699,9.46,2.55,14.4,2.659c0.66,1.28,1.29,2.58,1.89,3.9
		c2.55,0.06,4.68-1.82,7.21-2.13c1.66,1.71,4.28,1.39,6.41,2.08c19.92,4.58,39.92,8.77,59.84,13.35c0.01,2.73,1.271,4.91,3.61,6.29
		c0.76,3.53,4.16,4.75,5.859,7.62H273.44c-10.601-3.42-21.66-5.15-32.41-8.03c-5.011-1.34-10.221-1.89-15.1-3.71
		C223.66,321.94,220.3,316.07,218.23,309.68L218.23,309.68z"/>
	<path fill="#FF6419" d="M147.49,294.96c2.01,7.59,2.61,15.5,5.17,22.95c2.42,7.189,3.6,14.689,5.18,22.09h-5.48
		C150.79,324.98,148.83,310,147.49,294.96L147.49,294.96z"/>
	<path fill="#21386E" d="M366.26,296.3c0.99-0.68,2.16-0.96,3.33-1.2c-0.08,1.73-0.12,3.45-0.03,5.19c3.311,0.6,6.65,1.1,9.94,1.86
		c0.12,1.29,0.23,2.59,0.35,3.89c3.41,1.65,7.16,2.43,10.681,3.84c-1.021,0.78-2.271,1.14-3.42,1.66
		c-3.45-1.271-6.91-2.53-10.48-3.4c-0.14-1.449-0.2-2.909-0.22-4.359c-3.44-0.59-6.891-1.101-10.351-1.54
		C366.21,300.27,366.47,298.28,366.26,296.3L366.26,296.3z"/>
	<path fill="#FF5D17" d="M203.14,295.82c7.06,9.689,11.92,20.71,17.88,31.06c-1.48,0.18-2.96,0.33-4.44,0.45
		c-3.89-8.74-7.79-17.47-11.6-26.24C204.22,299.39,203.37,297.69,203.14,295.82L203.14,295.82z"/>
	<path fill="#1D2C5E" d="M274.21,298.18c0.79-0.699,1.59-1.38,2.42-2.04c0.4,1.811,0.25,3.83,1.25,5.46
		c2.13-0.25,4.26-0.56,6.33-1.1c1.771-0.49,3.6-1.12,5.43-0.47c-4.64,2.52-10.17,2.25-15.25,3.22l-0.56-0.8
		C273.94,301.02,274.07,299.6,274.21,298.18L274.21,298.18z"/>
	<path fill="#FF642B" d="M100.53,296.77c0.19,5.131-0.88,10.181-1.2,15.29l1.51-0.46c1.98-3.89,1.74-8.529,3.55-12.489
		c-0.6,5.569-0.99,11.159-1.63,16.729c-0.23,1.771-0.55,3.521-0.77,5.3c-1.99-0.12-3.93-0.6-5.75-1.43
		C97.64,312.06,98.87,304.37,100.53,296.77L100.53,296.77z"/>
	<path fill="#FF642B" d="M144.28,299.76c2.32,13.32,3.46,26.86,5.46,40.24h-2.3C146.41,326.58,144.89,313.2,144.28,299.76
		L144.28,299.76z"/>
	<path fill="#8F8D7D" d="M136.41,300.81c1.03,2.75,1.64,5.681,1.55,8.631c-1.68,4.25-0.51,8.92-1.13,13.34l-0.75,0.45
		c-0.45-3.891-1.14-7.78-1.06-11.7C136.66,308.2,135.52,304.33,136.41,300.81L136.41,300.81z"/>
	<path fill="#FF5F2A" d="M185.53,306.5c-0.58-1.85-1.27-3.71-1.21-5.67c3.06,7.93,6.13,15.87,9.2,23.8
		c0.27,0.93,0.73,1.771,1.36,2.521c-0.35-1.98-0.93-3.891-1.54-5.79c3.71,0.39,7.32,1.659,11.09,1.529
		c2.36,5.44,4.85,10.811,7.24,16.24c-0.88-5.149-3.66-9.78-5.31-14.72c2.66,0.38,5.32,0.77,7.97,1.24
		c1.81,3.47,3.45,7.04,5.59,10.319c-0.68-3.029-2.22-5.77-3.34-8.64c1.48-0.12,2.96-0.271,4.44-0.45c0.47-0.27,1.41-0.8,1.88-1.07
		c0.94,0.87,1.77,1.98,3.03,2.45c4.879,1.82,10.089,2.37,15.1,3.71c10.75,2.88,21.81,4.61,32.41,8.03h-77.22
		C192.75,328.8,189.07,317.67,185.53,306.5L185.53,306.5z"/>
	<path fill="#8E1C07" d="M394.02,300.22c1.79,1,3.881,0.69,5.83,0.971c0.5,1.76-0.199,3.42-1.14,4.89c-1.05-0.18-2.08-0.4-3.09-0.66
		C394.45,303.95,395.5,301.64,394.02,300.22L394.02,300.22z"/>
	<path fill="#B27763" d="M269,301.75l0.7-0.34c1.109,0.51,2.55,1.81,2.08,3.18C270.4,304.59,269.17,303.04,269,301.75L269,301.75z"
		/>
	<path fill="#FF6519" d="M126.51,334.05c0.25-10.08,0.4-20.16,1.01-30.21c0.62,8.061,0.8,16.15,1.17,24.23
		c0,1.02,0.18,2.04,0.63,2.97c1.04-7.38-0.35-14.95,1.23-22.24c0.18,7.061,0.79,14.101,1.35,21.13c0.19-0.229,0.56-0.699,0.75-0.93
		c2.34,0.01,4.65,0.47,6.92,1.07c0.86,3.25,1.07,6.609,1.57,9.93h-15.36C126.31,338.06,126.49,336.05,126.51,334.05L126.51,334.05z"
		/>
	<path fill="#FF6519" d="M72.68,340c2.69-8.62,4.72-17.45,7.86-25.92c-1.18,8.05-3.81,15.86-4.42,23.979
		c2.35-4.569,2.96-10.09,5.14-14.84c-0.28,5.63-1.99,11.11-1.79,16.78H72.68L72.68,340z"/>
	<path fill="#FF6419" d="M121.74,314.39c0.13-0.05,0.4-0.159,0.53-0.21c2.05,8.431,1.16,17.221,1.54,25.82h-3.37
		C120.77,331.46,121.44,322.93,121.74,314.39L121.74,314.39z"/>
	<path fill="#8A8F80" d="M101.99,321.14c0.22-1.779,0.54-3.529,0.77-5.3c-0.03,1.65,0.01,3.3,0.06,4.96
		c0.56-0.13,1.67-0.399,2.23-0.53c-0.02,1.98-0.38,3.931-0.9,5.841c-0.05-0.721-0.15-2.16-0.2-2.88c-0.56,1.17-1.25,2.25-2.07,3.25
		C101.83,324.7,101.87,322.91,101.99,321.14L101.99,321.14z"/>
	<path fill="#FF6519" d="M117.42,321.09c0.49-1.04,0.32-2.939,1.79-3.109c-0.07,7.34-0.11,14.68-0.3,22.02h-3.6
		C115.96,333.69,116.47,327.36,117.42,321.09L117.42,321.09z"/>
	<path fill="#FF642B" d="M158.91,340c-0.82-7.32-2.11-14.6-2.43-21.96c1.64,7.28,2.96,14.64,4.45,21.96H158.91L158.91,340z"/>
	<path fill="#FF6519" d="M93.13,335.41c1.2-5.2,2.18-10.45,3.11-15.7c1.82,0.83,3.76,1.31,5.75,1.43
		c-0.12,1.771-0.16,3.561-0.11,5.341c0.82-1,1.51-2.08,2.07-3.25c0.05,0.72,0.15,2.159,0.2,2.88c-0.58,4.609-0.83,9.25-1.13,13.89
		H86.49c0.81-3.34,1.46-6.77,2.96-9.88c-0.62,3.27-0.95,6.58-1.44,9.87l1.78-0.21c1.29-6.3,2.19-12.78,3.97-18.91
		c0.3,5.01-0.81,9.93-1.11,14.91C92.77,335.69,93.01,335.5,93.13,335.41L93.13,335.41z"/>
	<path fill="#FF4022" d="M383.38,321.43l0.521-0.979c10.92,2.53,21.859,5,32.81,7.41c12.48,2.54,24.85,5.609,37.29,8.359V340h-55.8
		c0.18-0.73,0.35-1.46,0.53-2.19c-1.5-0.52-2.95-1.159-4.351-1.899c0.33-0.521,0.67-1.04,1.021-1.54c-2.86-1.021-3.44-4.34-5.32-6.4
		C388.36,325.27,385.3,323.89,383.38,321.43L383.38,321.43z"/>
	<path fill="#FF4812" d="M311.92,326.09c19.07,4.05,38.09,8.38,57.15,12.5c1.52,0.28,2.979,0.79,4.399,1.41h-52.08
		c-1.699-2.87-5.1-4.09-5.859-7.62C313.19,331,311.93,328.82,311.92,326.09L311.92,326.09z"/>
	<path fill="#FF6519" d="M143.54,336.18c1.67,0.561,2.06,2.261,2.32,3.82h-2.6C143.33,338.72,143.42,337.45,143.54,336.18
		L143.54,336.18z"/>
</g>
</svg>
